<svg width="53" height="57" viewBox="0 0 53 57" fill="none" xmlns="http://www.w3.org/2000/svg">
<path d="M50.0254 31.2249H48.2754H13.2846C13.2828 31.2249 13.2811 31.2249 13.2793 31.2249H4.52539H2.77539C1.32792 31.2249 0.150391 32.4025 0.150391 33.8499C0.150391 34.3331 0.542172 34.7249 1.02539 34.7249C1.50861 34.7249 1.90039 34.3331 1.90039 33.8499C1.90039 33.3674 2.29294 32.9749 2.77539 32.9749H3.49245L1.46103 45.1639C1.15369 47.0084 1.51419 48.9073 2.47625 50.5106L3.65039 52.4672V55.6155C3.65039 56.1583 4.09205 56.5999 4.63477 56.5999H48.166C48.7087 56.5999 49.1504 56.1583 49.1504 55.6155V52.4672L50.3245 50.5106C51.2866 48.9073 51.6471 47.0084 51.3397 45.1639L49.3083 32.9749H50.0254C50.5078 32.9749 50.9004 33.3674 50.9004 33.8499C50.9004 34.3331 51.2922 34.7249 51.7754 34.7249C52.2586 34.7249 52.6504 34.3331 52.6504 33.8499C52.6504 32.4025 51.4729 31.2249 50.0254 31.2249ZM44.4489 49.6102L43.405 51.3499H40.8179L41.4361 49.8044C41.9157 48.6054 42.0938 47.2932 41.9512 46.0097L40.503 32.9749H43.1592L45.2386 45.4517C45.4776 46.8863 45.1971 48.3631 44.4489 49.6102ZM36.3101 51.3499L36.8936 49.3056C37.1526 48.3987 37.2461 47.462 37.1715 46.5214L36.0975 32.9749H38.7422L40.2119 46.203C40.3228 47.2013 40.1844 48.2218 39.8112 49.1543L38.933 51.3499H36.3101ZM31.701 51.3499L31.8811 48.1504C31.8916 47.9633 31.8954 47.7732 31.8924 47.5852L31.6642 32.9749H34.342L35.427 46.6597C35.485 47.3912 35.4123 48.1198 35.2109 48.8251L34.4902 51.3499H31.701ZM27.2754 51.3499V32.9749H29.914L30.1427 47.6125C30.145 47.7587 30.142 47.9067 30.1338 48.0523L29.9483 51.3499H27.2754ZM22.8473 51.3499L22.6426 48.0747C22.6325 47.9124 22.6288 47.7481 22.6317 47.5861L22.8854 32.9749H25.5254V51.3499H22.8473ZM9.39575 51.3499L8.35188 49.6102C7.60364 48.3633 7.3232 46.8864 7.56219 45.4517L9.64163 32.9749H12.2978L10.8495 46.0097C10.7068 47.2932 10.885 48.6054 11.3646 49.8044L11.9828 51.3499H9.39575ZM13.8678 51.3499L12.9895 49.1544C12.6164 48.2219 12.4778 47.2014 12.5887 46.2031L14.0586 32.9749H16.7028L15.6217 46.5122C15.5461 47.4592 15.6408 48.4022 15.9033 49.3152L16.4884 51.3499H13.8678ZM18.3093 51.3499L17.5852 48.8315C17.381 48.1215 17.3073 47.3881 17.3661 46.6514L18.4583 32.9749H21.1351L20.882 47.5557C20.8783 47.7638 20.8831 47.9751 20.8961 48.1838L21.0941 51.3499H18.3093ZM3.18719 45.4517L5.26662 32.9749H7.86756L5.83603 45.1639C5.52869 47.0084 5.88919 48.9073 6.85125 50.5106L7.35481 51.3499H5.02075L3.97688 49.6102C3.22864 48.3631 2.9482 46.8863 3.18719 45.4517ZM47.4004 54.8499H5.40039V53.0999H8.89952C8.90006 53.0999 8.90061 53.1 8.90116 53.1C8.9017 53.1 8.90225 53.0999 8.9028 53.0999H13.2728C13.2737 53.0999 13.2746 53.1001 13.2756 53.1001C13.2771 53.1001 13.2787 53.0999 13.2802 53.0999H17.6473C17.6482 53.0999 17.6491 53.1001 17.65 53.1001C17.6509 53.1001 17.652 53.0999 17.653 53.0999H35.1478C35.1488 53.0999 35.1498 53.1001 35.1508 53.1001C35.1517 53.1001 35.1526 53.0999 35.1535 53.0999H39.5206C39.5221 53.0999 39.5236 53.1001 39.5252 53.1001C39.5262 53.1001 39.527 53.0999 39.528 53.0999H43.898C43.8985 53.0999 43.8991 53.1 43.8996 53.1C43.9002 53.1 43.9007 53.0999 43.9013 53.0999H47.4004V54.8499ZM48.8239 49.6102L47.78 51.3499H45.446L45.9495 50.5106C46.9116 48.9073 47.2721 47.0084 46.9647 45.1639L44.9333 32.9749H47.5342L49.6136 45.4517C49.8526 46.8863 49.5721 48.3631 48.8239 49.6102Z" fill="black"/>
<path d="M9.77539 29.4749C10.2586 29.4749 10.6504 29.0831 10.6504 28.5999V2.34985H42.1504V28.5999C42.1504 29.0831 42.5422 29.4749 43.0254 29.4749C43.5086 29.4749 43.9004 29.0831 43.9004 28.5999V2.34985C43.9004 1.38495 43.1153 0.599854 42.1504 0.599854H10.6504C9.68548 0.599854 8.90039 1.38495 8.90039 2.34985V28.5999C8.90039 29.0831 9.29217 29.4749 9.77539 29.4749Z" fill="black"/>
<path d="M39.5254 29.4749C40.0086 29.4749 40.4004 29.0831 40.4004 28.5999V4.97485C40.4004 4.49163 40.0086 4.09985 39.5254 4.09985H13.2754C12.7922 4.09985 12.4004 4.49163 12.4004 4.97485V28.5999C12.4004 29.0831 12.7922 29.4749 13.2754 29.4749C13.7586 29.4749 14.1504 29.0831 14.1504 28.5999V15.4749H22.9003C23.3835 15.4749 23.7753 15.0831 23.7753 14.5999C23.7753 14.1166 23.3835 13.7249 22.9003 13.7249H14.1504V5.84985H25.5254V28.5999C25.5254 29.0831 25.9172 29.4749 26.4004 29.4749C26.8836 29.4749 27.2754 29.0831 27.2754 28.5999V15.4749H38.6504V28.5999C38.6504 29.0831 39.0422 29.4749 39.5254 29.4749ZM27.2754 13.7249V5.84985H38.6504V13.7249H27.2754Z" fill="black"/>
</svg>
