<svg width="56" height="56" viewBox="0 0 56 56" fill="none" xmlns="http://www.w3.org/2000/svg">
<g clip-path="url(#clip0_0_9537)">
<path d="M55.0667 22.4C55.5821 22.4 56 21.9821 56 21.4667C56 20.9512 55.5821 20.5333 55.0667 20.5333H52.2667V2.8C52.2667 1.2536 51.0131 0 49.4667 0H38.2667C36.7203 0 35.4667 1.2536 35.4667 2.8V20.5333H32.6667C32.1512 20.5333 31.7333 20.9512 31.7333 21.4667C31.7333 21.9821 32.1512 22.4 32.6667 22.4H33.6V26.1333H32.6667C32.1512 26.1333 31.7333 26.5512 31.7333 27.0667C31.7333 27.5821 32.1512 28 32.6667 28H33.6V31.7333H32.6667C32.1512 31.7333 31.7333 32.1512 31.7333 32.6667C31.7333 33.1821 32.1512 33.6 32.6667 33.6H33.6V37.3333H32.6667C32.1512 37.3333 31.7333 37.7512 31.7333 38.2667C31.7333 38.7821 32.1512 39.2 32.6667 39.2H33.6V42.9333H32.6667C32.1512 42.9333 31.7333 43.3512 31.7333 43.8667C31.7333 44.3821 32.1512 44.8 32.6667 44.8H33.6V48.5333H32.6667C32.1512 48.5333 31.7333 48.9512 31.7333 49.4667C31.7333 49.9821 32.1512 50.4 32.6667 50.4H33.6V54.1333H28V22.4C28 21.3691 27.1643 20.5333 26.1333 20.5333H1.86667C0.835735 20.5333 0 21.3691 0 22.4V54.1333C0 55.1643 0.835735 56 1.86667 56H55.0667C55.5821 56 56 55.5821 56 55.0667C56 54.5512 55.5821 54.1333 55.0667 54.1333H54.1333V50.4H55.0667C55.5821 50.4 56 49.9821 56 49.4667C56 48.9512 55.5821 48.5333 55.0667 48.5333H54.1333V44.8H55.0667C55.5821 44.8 56 44.3821 56 43.8667C56 43.3512 55.5821 42.9333 55.0667 42.9333H54.1333V39.2H55.0667C55.5821 39.2 56 38.7821 56 38.2667C56 37.7512 55.5821 37.3333 55.0667 37.3333H54.1333V33.6H55.0667C55.5821 33.6 56 33.1821 56 32.6667C56 32.1512 55.5821 31.7333 55.0667 31.7333H54.1333V28H55.0667C55.5821 28 56 27.5821 56 27.0667C56 26.5512 55.5821 26.1333 55.0667 26.1333H54.1333V22.4H55.0667ZM14.9333 37.3333H22.4V39.2H14.9333V37.3333ZM14 41.0667H21.4667V42.9333H14V41.0667ZM23.3091 40.8203C23.8984 40.4937 24.2648 39.8738 24.2667 39.2V37.3333C24.2667 36.3024 23.4309 35.4667 22.4 35.4667H14.9333C13.9024 35.4667 13.0667 36.3024 13.0667 37.3333V39.2C13.0694 39.2826 13.0778 39.3649 13.0919 39.4464C12.5022 39.7727 12.1354 40.3927 12.1333 41.0667V42.9333H1.86667V33.6H26.1333V42.9333H23.3333V41.0667C23.3306 40.9841 23.3222 40.9017 23.3081 40.8203H23.3091ZM7.46667 31.7333H5.6V26.1333H7.46667V31.7333ZM16.8 28.9333C16.8 27.3869 18.0536 26.1333 19.6 26.1333C21.1464 26.1333 22.4 27.3869 22.4 28.9333C22.4 30.4797 21.1464 31.7333 19.6 31.7333C18.0536 31.7333 16.8 30.4797 16.8 28.9333ZM26.1333 22.4V31.7333H23.3091C23.9268 30.9303 24.2632 29.9464 24.2667 28.9333C24.2667 26.356 22.1773 24.2667 19.6 24.2667C17.0227 24.2667 14.9333 26.356 14.9333 28.9333C14.9368 29.9464 15.2732 30.9303 15.8909 31.7333H9.33333V26.1333C9.33333 25.1024 8.4976 24.2667 7.46667 24.2667H5.6C4.56907 24.2667 3.73333 25.1024 3.73333 26.1333V31.7333H1.86667V22.4H26.1333ZM1.86667 44.8H26.1333V54.1333H12.1091C12.7268 53.3303 13.0632 52.3464 13.0667 51.3333C13.0667 48.756 10.9773 46.6667 8.4 46.6667C5.82267 46.6667 3.73333 48.756 3.73333 51.3333C3.73677 52.3464 4.07325 53.3303 4.69093 54.1333H1.86667V44.8ZM5.6 51.3333C5.6 49.7869 6.8536 48.5333 8.4 48.5333C9.9464 48.5333 11.2 49.7869 11.2 51.3333C11.2 52.8797 9.9464 54.1333 8.4 54.1333C7.65739 54.1333 6.9452 53.8383 6.4201 53.3132C5.895 52.7881 5.6 52.0759 5.6 51.3333ZM37.3333 2.8C37.3333 2.28453 37.7512 1.86667 38.2667 1.86667H49.4667C49.9821 1.86667 50.4 2.28453 50.4 2.8V20.5333H37.3333V2.8ZM52.2667 31.7333H35.4667V28H52.2667V31.7333ZM52.2667 37.3333H35.4667V33.6H52.2667V37.3333ZM52.2667 42.9333H35.4667V39.2H52.2667V42.9333ZM52.2667 48.5333H35.4667V44.8H52.2667V48.5333ZM35.4667 54.1333V50.4H52.2667V54.1333H35.4667ZM52.2667 26.1333H35.4667V22.4H52.2667V26.1333Z" fill="black"/>
<path d="M48.5329 11.2C48.0175 11.2 47.5996 11.6178 47.5996 12.1333V13.0666C47.5996 13.5821 48.0175 13.9999 48.5329 13.9999C49.0484 13.9999 49.4663 13.5821 49.4663 13.0666V12.1333C49.4663 11.6178 49.0484 11.2 48.5329 11.2Z" fill="black"/>
<path d="M1.86667 9.33333H22.4C23.4309 9.33333 24.2667 8.4976 24.2667 7.46667V1.86667C24.2667 0.835735 23.4309 0 22.4 0H1.86667C0.835735 0 0 0.835735 0 1.86667V7.46667C0 8.4976 0.835735 9.33333 1.86667 9.33333ZM22.4 7.46667H13.0667V1.86667H22.4V7.46667ZM1.86667 1.86667H11.2V7.46667H1.86667V1.86667Z" fill="black"/>
</g>
<defs>
<clipPath id="clip0_0_9537">
<rect width="56" height="56" fill="white"/>
</clipPath>
</defs>
</svg>
