<svg width="56" height="56" viewBox="0 0 56 56" fill="none" xmlns="http://www.w3.org/2000/svg">
<g clip-path="url(#clip0_0_9555)">
<path d="M0.570374 33.0479C1.89697 36.6962 5.34229 39.1434 9.22424 39.1947L7.47211 54.9639C7.44305 55.228 7.52765 55.4916 7.70453 55.6894C7.88184 55.8872 8.13477 56 8.40009 56H19.5999C19.8652 56 20.1182 55.8872 20.2955 55.6894C20.4724 55.4916 20.5569 55.228 20.5279 54.9639L18.7758 39.1947C23.8839 39.1306 27.9932 34.9752 28 29.8666V28.9335C28 28.4178 27.5822 28 27.0665 28H20.3117C24.6354 25.0734 27.1788 20.1532 27.0665 14.9335C27.0665 6.69922 21.2055 0 14 0C6.79449 0 0.933533 6.69922 0.933533 14.9335C0.821167 20.1532 3.36456 25.0734 7.68829 28H0.933533C0.417847 28 0 28.4178 0 28.9335V29.8666C0.00213622 30.9339 0.188843 31.993 0.551575 32.9966C0.557983 33.0142 0.562683 33.0308 0.570374 33.0479ZM9.44257 54.1334L11.1024 39.1998H16.8976L18.5574 54.1334H9.44257ZM2.80017 14.9335C2.80017 7.72803 7.82416 1.86664 14 1.86664C20.1758 1.86664 25.1998 7.72803 25.1998 14.9335C25.1998 22.1386 20.1758 28 14 28C13.3728 27.9953 12.7477 27.9295 12.1334 27.8035V23.3332C12.1338 22.8179 12.5512 22.4005 13.0665 22.4001H14C14.5153 22.4005 14.9327 22.8179 14.9335 23.3332C14.9335 23.8489 15.3514 24.2667 15.8666 24.2667C16.3823 24.2667 16.8002 23.8489 16.8002 23.3332C16.7985 21.7878 15.5458 20.5352 14 20.5334H13.0665C11.5211 20.5352 10.2684 21.7878 10.2667 23.3332V27.2378C5.92377 25.4382 2.80017 20.6095 2.80017 14.9335ZM26.1334 29.8666C26.1287 33.9883 22.7885 37.3285 18.6668 37.3332H9.33319C6.66931 37.3302 4.2088 35.9075 2.87708 33.5999H6.53345C7.04871 33.5999 7.46655 33.1821 7.46655 32.6668C7.46655 32.1511 7.04871 31.7333 6.53345 31.7333H2.1123C1.95166 31.124 1.8692 30.4968 1.86664 29.8666H26.1334Z" fill="black"/>
<path d="M10.2675 33.6H11.2006C11.7163 33.6 12.1342 33.1822 12.1342 32.6669C12.1342 32.1512 11.7163 31.7334 11.2006 31.7334H10.2675C9.75183 31.7334 9.33398 32.1512 9.33398 32.6669C9.33398 33.1822 9.75183 33.6 10.2675 33.6Z" fill="black"/>
<path d="M7.46641 10.2668C7.71421 10.2673 7.95176 10.1686 8.1265 9.9934L11.8598 6.26012C12.1025 6.02556 12.1994 5.67864 12.1144 5.35222C12.029 5.02581 11.7739 4.77117 11.4475 4.68572C11.1215 4.60027 10.7741 4.69768 10.54 4.94036L6.80674 8.67363C6.53971 8.94066 6.45982 9.34185 6.60422 9.69048C6.74906 10.0391 7.08915 10.2668 7.46641 10.2668Z" fill="black"/>
<path d="M17.4591 6.26012C17.7018 6.02556 17.7992 5.67864 17.7137 5.35222C17.6283 5.02581 17.3732 4.77117 17.0472 4.68572C16.7208 4.60027 16.3739 4.69768 16.1393 4.94036L5.87261 15.2071C5.62993 15.4412 5.53295 15.7881 5.6184 16.1146C5.70342 16.441 5.95849 16.6956 6.2849 16.7811C6.61132 16.8665 6.95824 16.7691 7.19237 16.5268L17.4591 6.26012Z" fill="black"/>
<path d="M55.067 32.6669H54.1339V31.7333C54.1339 31.2181 53.7161 30.8002 53.2004 30.8002C52.6851 30.8002 52.2673 31.2181 52.2673 31.7333V32.6669H50.4006V31.7333C50.3989 30.1876 49.1462 28.9353 47.6005 28.9336H38.2673C36.7215 28.9353 35.4688 30.1876 35.4671 31.7333V32.6669H33.6005V31.7333C33.6005 31.2181 33.1826 30.8002 32.6674 30.8002C32.1517 30.8002 31.7338 31.2181 31.7338 31.7333V32.6669H30.8007C30.285 32.6669 29.8672 33.0847 29.8672 33.6C29.8672 34.1157 30.285 34.5335 30.8007 34.5335H31.7338V35.4666C31.7338 35.9823 32.1517 36.4001 32.6674 36.4001C33.1826 36.4001 33.6005 35.9823 33.6005 35.4666V34.5335H35.4671V47.6C35.4684 48.6305 36.3036 49.4653 37.3337 49.4666H44.8007C45.8308 49.4653 46.6661 48.6305 46.6674 47.6V46.6669H48.534C49.5645 46.6656 50.3994 45.8303 50.4006 44.8002V34.5335H52.2673V35.4666C52.2673 35.9823 52.6851 36.4001 53.2004 36.4001C53.7161 36.4001 54.1339 35.9823 54.1339 35.4666V34.5335H55.067C55.5827 34.5335 56.0005 34.1157 56.0005 33.6C56.0005 33.0847 55.5827 32.6669 55.067 32.6669ZM46.6674 31.7333C46.6674 31.2181 47.0852 30.8002 47.6005 30.8002C48.1161 30.8002 48.534 31.2181 48.534 31.7333V32.6669H46.6674V31.7333ZM44.8007 47.6H37.3337V31.7333C37.3342 31.2181 37.752 30.8007 38.2673 30.8002H44.9725C44.8618 31.0989 44.8037 31.4146 44.8007 31.7333V47.6ZM48.534 44.8002H46.6674V34.5335H48.534V44.8002Z" fill="black"/>
<path d="M54.1325 0H33.5991C32.5685 0.00128174 31.7337 0.836121 31.7324 1.86664V24.2667C31.7337 25.2972 32.5685 26.1321 33.5991 26.1334H54.1325C55.163 26.1321 55.9979 25.2972 55.9991 24.2667V1.86664C55.9979 0.836121 55.163 0.00128174 54.1325 0ZM54.1329 18.6668H44.7993V1.86664H54.1325L54.1329 18.6668ZM42.9327 1.86664V18.6668H33.5991V1.86664H42.9327ZM33.5991 24.2667V20.5334H54.1334V24.2667H33.5991Z" fill="black"/>
<path d="M40.1328 11.1999H41.0659C41.5815 11.1999 41.9994 10.782 41.9994 10.2668C41.9994 9.7511 41.5815 9.33325 41.0659 9.33325H40.1328C39.6171 9.33325 39.1992 9.7511 39.1992 10.2668C39.1992 10.782 39.6171 11.1999 40.1328 11.1999Z" fill="black"/>
<path d="M46.666 11.1999H47.5991C48.1147 11.1999 48.5326 10.782 48.5326 10.2668C48.5326 9.7511 48.1147 9.33325 47.5991 9.33325H46.666C46.1503 9.33325 45.7324 9.7511 45.7324 10.2668C45.7324 10.782 46.1503 11.1999 46.666 11.1999Z" fill="black"/>
</g>
<defs>
<clipPath id="clip0_0_9555">
<rect width="56" height="56" fill="white"/>
</clipPath>
</defs>
</svg>
