<svg width="57" height="56" viewBox="0 0 57 56" fill="none" xmlns="http://www.w3.org/2000/svg">
<g clip-path="url(#clip0_0_9476)">
<path d="M53.6004 29.8657H52.6671V10.2657C52.6671 5.59902 48.9338 1.86572 44.2671 1.86572C40.136 1.86572 37.1648 4.92888 36.8324 9.41708C34.6636 9.82702 33.0671 11.6949 33.0671 13.999C33.0671 14.559 33.4404 14.9323 34.0004 14.9323H41.4671C42.0271 14.9323 42.4004 14.559 42.4004 13.999C42.4004 11.7204 40.8392 9.86803 38.7071 9.43075C38.986 6.46494 40.7673 3.73232 44.2671 3.73232C47.9071 3.73232 50.8004 6.62561 50.8004 10.2656V29.8656H22.7102C22.288 27.713 20.4266 26.1323 18.1338 26.1323C17.2005 25.0123 15.8938 24.2656 14.4005 24.2656C12.6272 24.2656 11.0405 25.2923 10.2938 26.7856C9.54709 26.4123 8.70709 26.1323 7.86709 26.1323C5.57427 26.1323 3.71292 27.713 3.29073 29.8656H3.20039C1.61369 29.8656 0.400391 31.0789 0.400391 32.6656C0.400391 34.2523 1.61369 35.4656 3.20039 35.4656H4.32203L6.84039 45.4523C7.58709 48.3456 10.2004 50.399 13.1871 50.399H13.9338L12.7205 52.8257C12.4405 53.2924 12.6272 53.8524 13.0938 54.039C13.1871 54.1323 13.3738 54.1323 13.4671 54.1323C13.8404 54.1323 14.1204 53.9456 14.3071 53.6656L15.9404 50.399H41.8404L43.4271 53.5723C43.6138 53.9456 43.8938 54.1323 44.2671 54.1323C44.4538 54.1323 44.5471 54.1323 44.6404 53.9456C45.0137 53.7589 45.2004 53.1989 45.0137 52.7323L43.8446 50.394C46.7342 50.2914 49.233 48.2732 49.9604 45.5456L52.5023 35.4656H53.6004C55.1871 35.4656 56.4004 34.2523 56.4004 32.6656C56.4004 31.079 55.1871 29.8657 53.6004 29.8657ZM40.4404 13.0657H35.1204C35.4937 11.9457 36.6137 11.199 37.8271 11.199C39.0405 11.199 40.0671 11.9457 40.4404 13.0657ZM7.86709 27.999C8.70709 27.999 9.4538 28.3723 10.1071 29.0257C10.2938 29.3057 10.6671 29.399 11.0404 29.3057C11.4137 29.2124 11.6004 28.9324 11.6937 28.559C11.9737 27.159 13.0937 26.1323 14.4937 26.1323C15.5204 26.1323 16.4537 26.599 16.9204 27.5323C17.1071 27.9056 17.5737 28.0923 17.9471 27.999C18.0404 27.999 18.1338 27.999 18.2271 27.999C19.4404 27.999 20.4671 28.7457 20.8404 29.8657H5.25369C5.62709 28.7457 6.65369 27.999 7.86709 27.999ZM48.2804 44.9857C47.7204 47.039 45.8537 48.5324 43.7071 48.5324H13.2804C11.1337 48.5324 9.26709 47.0391 8.70709 44.9857L6.28039 35.4657H50.5204L48.2804 44.9857ZM53.6004 33.599H51.7337H5.06709H3.20039C2.64039 33.599 2.26709 33.2257 2.26709 32.6657C2.26709 32.1057 2.64039 31.7324 3.20039 31.7324H4.13369H21.867H53.6004C54.1604 31.7324 54.5337 32.1057 54.5337 32.6657C54.5337 33.2257 54.1604 33.599 53.6004 33.599Z" fill="black"/>
<path d="M33.9997 19.1324C34.5597 19.1324 34.933 18.7591 34.933 18.1991V17.7324C34.933 17.1724 34.5597 16.7991 33.9997 16.7991C33.4397 16.7991 33.0664 17.1724 33.0664 17.7324V18.1991C33.0664 18.7591 33.4397 19.1324 33.9997 19.1324Z" fill="black"/>
<path d="M33.9997 23.4255C34.5597 23.4255 34.933 22.9588 34.933 22.4922V21.4655C34.933 20.9055 34.5597 20.5322 33.9997 20.5322C33.4397 20.5322 33.0664 20.9055 33.0664 21.4655V22.4922C33.0664 23.0521 33.4397 23.4255 33.9997 23.4255Z" fill="black"/>
<path d="M33.9997 27.0657C34.5597 27.0657 34.933 26.6924 34.933 26.1324V25.6657C34.933 25.1057 34.5597 24.7324 33.9997 24.7324C33.4397 24.7324 33.0664 25.1057 33.0664 25.6657V26.1324C33.0664 26.6923 33.4397 27.0657 33.9997 27.0657Z" fill="black"/>
<path d="M37.7341 19.1324C38.2941 19.1324 38.6674 18.7591 38.6674 18.1991V17.7324C38.6674 17.1724 38.2941 16.7991 37.7341 16.7991C37.1741 16.7991 36.8008 17.1724 36.8008 17.7324V18.1991C36.8008 18.7591 37.1741 19.1324 37.7341 19.1324Z" fill="black"/>
<path d="M36.8008 22.4922C36.8008 23.0522 37.1741 23.4255 37.7341 23.4255C38.2941 23.4255 38.6674 22.9588 38.6674 22.4922V21.4655C38.6674 20.9055 38.2941 20.5322 37.7341 20.5322C37.1741 20.5322 36.8008 20.9055 36.8008 21.4655V22.4922Z" fill="black"/>
<path d="M36.8008 26.1322C36.8008 26.6922 37.1741 27.0655 37.7341 27.0655C38.2941 27.0655 38.6674 26.6922 38.6674 26.1322V25.6655C38.6674 25.1055 38.2941 24.7322 37.7341 24.7322C37.1741 24.7322 36.8008 25.1055 36.8008 25.6655V26.1322Z" fill="black"/>
<path d="M41.4665 19.1324C42.0265 19.1324 42.3998 18.7591 42.3998 18.1991V17.7324C42.3998 17.1724 42.0265 16.7991 41.4665 16.7991C40.9065 16.7991 40.5332 17.1724 40.5332 17.7324V18.1991C40.5331 18.7591 40.9065 19.1324 41.4665 19.1324Z" fill="black"/>
<path d="M40.5332 22.4922C40.5332 23.0522 40.9065 23.4255 41.4665 23.4255C42.0265 23.4255 42.3999 22.9589 42.3999 22.4922V21.4655C42.3999 20.9055 42.0266 20.5322 41.4666 20.5322C40.9066 20.5322 40.5333 20.9055 40.5333 21.4655V22.4922H40.5332Z" fill="black"/>
<path d="M40.5332 26.1322C40.5332 26.6922 40.9065 27.0655 41.4665 27.0655C42.0265 27.0655 42.3998 26.6922 42.3998 26.1322V25.6655C42.3998 25.1055 42.0265 24.7322 41.4665 24.7322C40.9065 24.7322 40.5332 25.1055 40.5332 25.6655V26.1322Z" fill="black"/>
</g>
<defs>
<clipPath id="clip0_0_9476">
<rect width="56" height="56" fill="white" transform="translate(0.400391 -0.000732422)"/>
</clipPath>
</defs>
</svg>
