<svg width="64" height="64" viewBox="0 0 64 64" fill="none" xmlns="http://www.w3.org/2000/svg">
<path d="M54 51H57C57.2652 51 57.5196 50.8946 57.7071 50.7071C57.8946 50.5196 58 50.2652 58 50C58 49.7348 57.8946 49.4804 57.7071 49.2929C57.5196 49.1054 57.2652 49 57 49H54C53.7348 49 53.4804 49.1054 53.2929 49.2929C53.1054 49.4804 53 49.7348 53 50C53 50.2652 53.1054 50.5196 53.2929 50.7071C53.4804 50.8946 53.7348 51 54 51Z" fill="white"/>
<path d="M61 37.0001H59.2441C59.7279 36.2758 60.0501 35.4558 60.1889 34.596C60.3277 33.7361 60.2799 32.8564 60.0486 32.0167L60.5382 30.5478C60.8443 29.6302 61.0003 28.6692 61 27.7018V25.0001C61 24.8144 60.9483 24.6323 60.8507 24.4744C60.753 24.3164 60.6133 24.1887 60.4472 24.1057C60.2811 24.0226 60.0952 23.9874 59.9102 24.0041C59.7252 24.0208 59.5486 24.0887 59.4 24.2001L58.6 24.8001C58.1647 25.1272 57.7601 25.4932 57.391 25.8935C57.1012 25.2598 56.7442 24.659 56.3261 24.1016L55.8 23.4001C55.7069 23.2759 55.5861 23.1751 55.4472 23.1057C55.3084 23.0362 55.1552 23.0001 55 23.0001C54.8448 23.0001 54.6916 23.0362 54.5528 23.1057C54.4139 23.1751 54.2931 23.2759 54.2 23.4001L53.674 24.1016C53.2558 24.659 52.8987 25.2598 52.609 25.8936C52.2399 25.4932 51.8353 25.1272 51.4 24.8001L50.6 24.2001C50.4514 24.0887 50.2748 24.0208 50.0898 24.0041C49.9048 23.9874 49.7189 24.0226 49.5528 24.1057C49.3867 24.1887 49.247 24.3164 49.1493 24.4744C49.0517 24.6323 49 24.8144 49 25.0001V27.7018C48.9998 28.6692 49.1557 29.6303 49.4618 30.548L49.9514 32.0167C49.7201 32.8564 49.6723 33.7361 49.8111 34.596C49.9499 35.4558 50.2721 36.2757 50.7557 37.0001H50C49.7348 37.0001 49.4804 37.1054 49.2929 37.293C49.1054 37.4805 49 37.7349 49 38.0001V41.0501C48.8384 41.0172 47 41.0001 47 41.0001V35.5001C46.9993 34.924 46.8001 34.3657 46.4357 33.9194C46.0714 33.4731 45.5643 33.1661 45 33.0501V31.7501C44.9992 31.021 44.7092 30.322 44.1936 29.8065C43.6781 29.2909 42.9791 29.0009 42.25 29.0001H17.75C17.0209 29.0009 16.3219 29.2909 15.8064 29.8065C15.2908 30.322 15.0008 31.021 15 31.7501V33.0501C14.4357 33.1661 13.9286 33.4731 13.5643 33.9194C13.1999 34.3657 13.0007 34.924 13 35.5001V41.0001H10.5C9.83719 41.0008 9.20175 41.2645 8.73307 41.7332C8.2644 42.2018 8.00076 42.8373 8 43.5001V49.0001H6V32.8281C6.45953 32.6659 6.87258 32.3942 7.20335 32.0363C7.53413 31.6785 7.77265 31.2454 7.89825 30.7746C8.02385 30.3038 8.03273 29.8094 7.92412 29.3344C7.81552 28.8593 7.59271 28.4179 7.275 28.0485L11.6535 22.9403L12.616 25.5112C12.6758 25.6708 12.7753 25.8125 12.9053 25.9228C13.0352 26.0332 13.1912 26.1084 13.3584 26.1415C13.5256 26.1746 13.6985 26.1644 13.8606 26.1119C14.0228 26.0594 14.1688 25.9663 14.2849 25.8415L19.7318 19.9822C19.8478 19.8574 19.9301 19.7049 19.9706 19.5394C20.0112 19.3738 20.0088 19.2006 19.9636 19.0363C19.9185 18.8719 19.832 18.7218 19.7125 18.6002C19.593 18.4787 19.4444 18.3897 19.2809 18.3417L15.265 17.1638L14.5059 16.311C14.2064 15.9744 13.8388 15.7053 13.4275 15.5215C13.0162 15.3376 12.5706 15.2432 12.12 15.2444C11.6695 15.2456 11.2244 15.3425 10.8141 15.5287C10.4039 15.7148 10.0378 15.9859 9.74013 16.3241C9.44247 16.6623 9.22002 17.0598 9.0875 17.4904C8.95497 17.921 8.91538 18.3748 8.97136 18.8219C9.02733 19.2689 9.17759 19.699 9.4122 20.0836C9.6468 20.4682 9.9604 20.7986 10.3322 21.053L10.5247 21.1846L5.50313 27.0431C4.76323 26.9185 4.00351 27.0757 3.37382 27.4837C2.74412 27.8917 2.29016 28.5208 2.10147 29.247C1.91278 29.9732 2.00306 30.7437 2.35451 31.4067C2.70596 32.0696 3.29305 32.5767 4 32.8281V49.0001H3C2.73478 49.0001 2.48043 49.1054 2.29289 49.293C2.10536 49.4805 2 49.7349 2 50.0001V54.0001C2 54.2653 2.10536 54.5197 2.29289 54.7072C2.48043 54.8947 2.73478 55.0001 3 55.0001H61C61.2652 55.0001 61.5196 54.8947 61.7071 54.7072C61.8946 54.5197 62 54.2653 62 54.0001V38.0001C62 37.7349 61.8946 37.4805 61.7071 37.293C61.5196 37.1054 61.2652 37.0001 61 37.0001ZM11.1896 17.7096C11.2952 17.5709 11.4302 17.4573 11.585 17.377C11.7398 17.2968 11.9104 17.2519 12.0846 17.2456C12.0998 17.2456 12.1147 17.2448 12.1298 17.2448C12.2965 17.2446 12.4613 17.2799 12.6134 17.3481C12.7656 17.4164 12.9014 17.5162 13.0121 17.6408L13.9621 18.7076C14.0866 18.8475 14.2479 18.9496 14.4276 19.0023L17.1664 19.8056L13.9229 23.2947L12.9651 20.7365C12.8962 20.4994 12.7502 20.292 12.5503 20.1471L11.4628 19.4023C11.3304 19.3118 11.2178 19.1952 11.1319 19.0598C11.046 18.9243 10.9886 18.7728 10.9631 18.6144C10.9377 18.456 10.9447 18.2941 10.9839 18.1386C11.023 17.983 11.0934 17.8371 11.1908 17.7096H11.1896ZM5 29.0001C5.19778 29.0001 5.39112 29.0587 5.55557 29.1686C5.72002 29.2785 5.84819 29.4347 5.92388 29.6174C5.99957 29.8001 6.01937 30.0012 5.98079 30.1952C5.9422 30.3892 5.84696 30.5673 5.70711 30.7072C5.56725 30.847 5.38907 30.9423 5.19509 30.9809C5.00111 31.0195 4.80004 30.9997 4.61732 30.924C4.43459 30.8483 4.27841 30.7201 4.16853 30.5557C4.05865 30.3912 4 30.1979 4 30.0001C4.0003 29.735 4.10575 29.4808 4.29322 29.2933C4.48069 29.1058 4.73487 29.0004 5 29.0001ZM60 45.0001H51V39.0001H60V45.0001ZM59 27.1001V27.7018C59.0002 28.4542 58.8789 29.2017 58.6408 29.9155L58.2791 31.0001H58.1959C58.3042 30.0726 58.2768 29.1343 58.1146 28.2147C58.3708 27.8138 58.6675 27.4403 59 27.1001ZM55 25.691C56.0328 27.2554 56.4528 29.1455 56.1797 31.0001H53.8203C53.5472 29.1455 53.9672 27.2554 55 25.691ZM51 27.1001C51.3325 27.4403 51.6292 27.8138 51.8854 28.2147C51.7232 29.1343 51.6958 30.0726 51.8041 31.0001H51.7207L51.3592 29.9156C51.1211 29.2018 50.9998 28.4543 51 27.7018V27.1001ZM52.9432 36.5291C52.485 36.0742 52.141 35.5173 51.9394 34.9039C51.7377 34.2905 51.6841 33.6381 51.783 33.0001H58.217C58.3159 33.6381 58.2623 34.2905 58.0606 34.9039C57.859 35.5173 57.515 36.0742 57.0568 36.5291L56.5859 37.0001H53.4141L52.9432 36.5291ZM44.5 35.0001C44.6326 35.0001 44.7598 35.0528 44.8536 35.1465C44.9473 35.2403 45 35.3675 45 35.5001V41.0001H33V35.5001C33 35.3675 33.0527 35.2403 33.1464 35.1465C33.2402 35.0528 33.3674 35.0001 33.5 35.0001H44.5ZM17.75 31.0001H42.25C42.4489 31.0003 42.6395 31.0794 42.7801 31.22C42.9207 31.3606 42.9998 31.5512 43 31.7501V33.0001H33.5C32.8372 33.0008 32.2017 33.2645 31.7331 33.7332C31.2644 34.2018 31.0008 34.8373 31 35.5001V41.0001H29V35.5001C28.9992 34.8373 28.7356 34.2018 28.2669 33.7332C27.7983 33.2645 27.1628 33.0008 26.5 33.0001H17V31.7501C17.0002 31.5512 17.0793 31.3606 17.2199 31.22C17.3605 31.0794 17.5511 31.0003 17.75 31.0001ZM15 35.5001C15 35.3675 15.0527 35.2403 15.1464 35.1465C15.2402 35.0528 15.3674 35.0001 15.5 35.0001H26.5C26.6326 35.0001 26.7598 35.0528 26.8536 35.1465C26.9473 35.2403 27 35.3675 27 35.5001V41.0001H15V35.5001ZM10 43.5001C10 43.3675 10.0527 43.2403 10.1464 43.1465C10.2402 43.0528 10.3674 43.0001 10.5 43.0001H48.5C48.6326 43.0001 48.7598 43.0528 48.8536 43.1465C48.9473 43.2403 49 43.3675 49 43.5001V49.0001H10V43.5001ZM4 51.0001H10V53.0001H4V51.0001ZM12 51.0001H49V53.0001H12V51.0001ZM60 53.0001H51V47.0001H60V53.0001Z" fill="white"/>
<path d="M54 41C53.7348 41 53.4804 41.1054 53.2929 41.2929C53.1054 41.4804 53 41.7348 53 42C53 42.2652 53.1054 42.5196 53.2929 42.7071C53.4804 42.8946 53.7348 43 54 43H57C57.2652 43 57.5196 42.8946 57.7071 42.7071C57.8946 42.5196 58 42.2652 58 42C58 41.7348 57.8946 41.4804 57.7071 41.2929C57.5196 41.1054 57.2652 41 57 41H54Z" fill="white"/>
<path d="M25 23H45C45.2652 23 45.5196 22.8946 45.7071 22.7071C45.8946 22.5196 46 22.2652 46 22V10C46 9.73478 45.8946 9.48043 45.7071 9.29289C45.5196 9.10536 45.2652 9 45 9H25C24.7348 9 24.4804 9.10536 24.2929 9.29289C24.1054 9.48043 24 9.73478 24 10V22C24 22.2652 24.1054 22.5196 24.2929 22.7071C24.4804 22.8946 24.7348 23 25 23ZM26 20.5351L30.8725 17.2868L32.4294 18.8436L29.6569 21H26V20.5351ZM32.9145 21L38.9171 16.3313L43.5859 21H32.9145ZM44 11V18.5858L39.7071 14.2929C39.5348 14.1205 39.3054 14.0171 39.0622 14.0019C38.8189 13.9868 38.5785 14.061 38.3861 14.2106L34.0204 17.6061L31.7071 15.2929C31.5437 15.1294 31.3286 15.0276 31.0985 15.0048C30.8685 14.982 30.6376 15.0396 30.4453 15.1679L26 18.1315V11H44Z" fill="white"/>
<path d="M34 15.25C34.8975 15.25 35.625 14.5225 35.625 13.625C35.625 12.7275 34.8975 12 34 12C33.1025 12 32.375 12.7275 32.375 13.625C32.375 14.5225 33.1025 15.25 34 15.25Z" fill="white"/>
</svg>
