<svg width="56" height="56" viewBox="0 0 56 56" fill="none" xmlns="http://www.w3.org/2000/svg">
<g clip-path="url(#clip0_0_9544)">
<path d="M16.0235 46.4839C16.6277 46.4839 17.1174 45.9941 17.1174 45.39C17.1174 44.7859 16.6277 44.2961 16.0235 44.2961C15.4194 44.2961 14.9297 44.7859 14.9297 45.39C14.9297 45.9941 15.4194 46.4839 16.0235 46.4839Z" fill="black"/>
<path d="M5.4545 10.9607C4.84955 10.9651 4.36381 11.4447 4.36721 12.0485C4.37158 12.65 4.86049 13.1231 5.46107 13.1231H5.46763C6.07258 13.1231 6.5593 12.6391 6.55493 12.0341C6.55055 11.4305 6.05836 10.9563 5.4545 10.9607Z" fill="black"/>
<path d="M17.4925 12.199C17.4772 12.8028 17.9531 13.2326 18.5569 13.342H18.5864C19.1771 13.342 19.664 12.8509 19.6792 12.2569C19.6956 11.6531 19.2186 11.15 18.6148 11.1347C18.0111 11.1184 17.509 11.5953 17.4925 12.199Z" fill="black"/>
<path d="M12.0907 6.56063H12.1038C12.7022 6.56063 13.1901 6.07927 13.1977 5.47989C13.2042 4.87614 12.7196 4.38068 12.1159 4.37411C11.512 4.36646 11.0164 4.84989 11.0099 5.45474C11.0022 6.05849 11.4868 6.55407 12.0907 6.56063Z" fill="black"/>
<path d="M15.3059 12.0295C15.3059 10.2201 13.8337 8.74816 12.0242 8.74816C11.4731 8.74816 10.9535 8.88532 10.4971 9.12638C10.4971 9.12638 7.98707 6.4386 7.87835 6.38599C7.47104 6.14416 6.93773 6.18726 6.57406 6.52665C6.1324 6.93888 6.10856 7.63101 6.52079 8.07255L9.0082 10.7374C8.83746 11.1342 8.74252 11.5709 8.74252 12.0295C8.74252 13.8389 10.2147 15.3109 12.0242 15.3109C13.8337 15.3109 15.3059 13.8388 15.3059 12.0295ZM12.0242 13.1233C11.421 13.1233 10.9304 12.6326 10.9304 12.0295C10.9304 11.8025 11 11.5915 11.1188 11.4165C11.1224 11.4132 11.1262 11.4106 11.1297 11.4072C11.1897 11.3513 11.2412 11.2898 11.2857 11.2248C11.4805 11.0459 11.7394 10.9357 12.0242 10.9357C12.6274 10.9357 13.1181 11.4263 13.1181 12.0294C13.1181 12.6326 12.6274 13.1233 12.0242 13.1233Z" fill="black"/>
<path d="M7.42325 15.6389C6.8183 15.6433 6.33256 16.1355 6.33596 16.7393C6.34033 17.3408 6.82924 17.8264 7.42982 17.8264H7.43638C8.04133 17.8221 8.52805 17.3299 8.52368 16.7249C8.5193 16.1213 8.027 15.6346 7.42325 15.6389Z" fill="black"/>
<path d="M16.51 17.8266H16.5166C17.1215 17.8222 17.6082 17.33 17.6039 16.725C17.5995 16.1213 17.1072 15.6346 16.5033 15.6389C15.8984 15.6433 15.4126 16.1355 15.416 16.7393C15.4204 17.3409 15.9094 17.8266 16.51 17.8266Z" fill="black"/>
<path d="M55.6905 26.5704C55.487 26.3669 55.2158 26.2488 54.9281 26.2488H53.2455C53.6191 25.5925 53.8342 24.859 53.8342 24.0623C53.8342 23.3455 53.6598 22.6697 53.3529 22.072L54.886 16.707C54.8875 16.7017 54.9285 16.3772 54.9259 16.3384L54.443 8.61263C54.3712 7.46244 53.4121 6.56042 52.2595 6.56042H46.6359C45.4833 6.56042 44.5242 7.46364 44.4523 8.61383L43.9694 16.3385C43.967 16.3773 44.0078 16.7019 44.0093 16.7073L45.5314 22.0713C45.2245 22.6691 45.0664 23.3449 45.0664 24.0616C45.0664 24.8583 45.2978 25.5923 45.6714 26.2487H43.9888C43.6999 26.2487 43.4079 26.3668 43.2032 26.5702C42.9998 26.7737 42.8728 27.0571 42.8728 27.3447V33.3583H38.8254V27.3448C38.8254 27.0572 38.7193 26.7738 38.5159 26.5704C38.3124 26.3669 38.0412 26.2488 37.7535 26.2488H36.4198L35.8728 24.0612H37.2065C37.8107 24.0612 38.2785 23.5738 38.2785 22.9696V7.65658C38.2785 7.0525 37.8107 6.56053 37.2065 6.56053H35.5437V3.28147C35.5437 2.67739 35.0759 2.18542 34.4717 2.18542H30.0961C29.4919 2.18542 28.9802 2.67739 28.9802 3.28147V6.56053H27.3614C26.7572 6.56053 26.2455 7.0525 26.2455 7.65658V22.9697C26.2455 23.5738 26.7573 24.0613 27.3614 24.0613H28.6951L28.1481 26.2489H26.8144C26.5255 26.2489 26.2335 26.367 26.0288 26.5705C25.8254 26.7739 25.6984 27.0573 25.6984 27.345V33.3585H18.588V27.3448C18.588 27.0572 18.4819 26.7738 18.2784 26.5704C18.075 26.3669 17.8037 26.2488 17.5161 26.2488H15.3063V23.6086C20.3383 22.1768 24.0685 17.5289 24.0685 12.0317C24.0687 5.39744 18.6763 0 12.0413 0C5.4063 0 0 5.39744 0 12.0317C0 17.5289 3.71109 22.1768 8.743 23.6086V26.2488H6.57716C6.28939 26.2488 5.99627 26.3669 5.79272 26.5704C5.58928 26.7738 5.4612 27.0572 5.4612 27.3448V43.2049C5.4612 44.0821 5.8135 44.9046 6.43377 45.5236C7.05283 46.1438 7.88867 46.4839 8.76488 46.4839H11.1233C11.7272 46.4839 12.2172 45.9939 12.2172 45.3902C12.2172 44.7875 11.7271 44.2964 11.1233 44.2964H8.76498C8.16331 44.2964 7.64914 43.8075 7.64914 43.2049V28.4364H16.4005V34.4545C16.4005 34.7422 16.5274 35.0233 16.732 35.2267C16.9355 35.4302 17.2275 35.5461 17.5164 35.5461H26.8147C27.1024 35.5461 27.3736 35.4302 27.577 35.2267C27.7805 35.0233 27.8866 34.7433 27.8866 34.4545V28.4364H36.6379V34.4545C36.6379 34.7422 36.7649 35.0233 36.9683 35.2267C37.1728 35.4302 37.465 35.5461 37.7538 35.5461H43.9891C44.2767 35.5461 44.548 35.4302 44.7514 35.2267C44.9549 35.0233 45.061 34.7422 45.061 34.4545V28.4364H53.8123V43.2049C53.8123 43.8075 53.342 44.2964 52.7403 44.2964H39.9415C39.0642 44.2964 38.2294 44.6399 37.6091 45.259C36.99 45.8781 36.6378 46.704 36.6378 47.5801V53.8125H27.9074L27.9085 47.579C27.9074 46.7028 27.566 45.8776 26.9469 45.2585C26.3267 44.6394 25.503 44.2964 24.6268 44.2964H20.9687C20.366 44.2964 19.8749 44.7875 19.8749 45.3902C19.8749 45.9939 20.366 46.4839 20.9687 46.4839H24.6268C25.2284 46.4839 25.6988 46.9784 25.6988 47.58V54.9084C25.6988 55.1961 25.8257 55.4772 26.0303 55.6806C26.2338 55.8841 26.5258 56 26.8147 56H37.7538C38.0415 56 38.3117 55.8841 38.5162 55.6806C38.7196 55.4772 38.8257 55.1961 38.8257 54.9084V47.58C38.8257 46.9784 39.3388 46.4839 39.9416 46.4839H52.7403C53.6176 46.4839 54.4304 46.1438 55.0495 45.5236C55.6698 44.9046 56.0001 44.0821 56.0001 43.2049V27.3448C56 27.0572 55.8939 26.7738 55.6905 26.5704ZM2.2015 12.0317C2.2015 6.60362 6.61806 2.1875 12.0467 2.1875C17.4753 2.1875 21.8918 6.60362 21.8918 12.0317C21.8918 17.4597 17.4753 21.8759 12.0467 21.8759C6.61806 21.8759 2.2015 17.4597 2.2015 12.0317ZM13.1187 26.2488H10.9308V24.0132C11.259 24.0458 11.656 24.0634 12.0247 24.0634C12.3934 24.0634 12.7904 24.0458 13.1185 24.0132V26.2488H13.1187ZM31.1683 4.37292H33.3561V6.56053H31.1683V4.37292ZM28.4335 21.8736V8.74803H36.0908V21.8736H28.4335ZM30.4034 26.2488L30.9504 24.0612H33.6178L34.1648 26.2488H30.4034ZM49.4585 26.2511C48.2522 26.2511 47.2707 25.2697 47.2707 24.0635C47.2707 22.8573 48.2522 21.8759 49.4585 21.8759C50.6648 21.8759 51.6463 22.8573 51.6463 24.0635C51.6463 25.2697 50.6648 26.2511 49.4585 26.2511ZM51.5985 20.2483C50.9654 19.8917 50.2356 19.6877 49.4585 19.6877C48.6815 19.6877 47.9516 19.8914 47.3185 20.2479L46.533 17.4985H52.3838L51.5985 20.2483ZM46.2472 15.3109L46.6575 8.74814H52.2595L52.6698 15.3109H46.2472Z" fill="black"/>
<path d="M16.756 8.57444C17.3601 8.57444 17.8498 8.0847 17.8498 7.48058C17.8498 6.87646 17.3601 6.38672 16.756 6.38672C16.1518 6.38672 15.6621 6.87646 15.6621 7.48058C15.6621 8.0847 16.1518 8.57444 16.756 8.57444Z" fill="black"/>
</g>
<defs>
<clipPath id="clip0_0_9544">
<rect width="56" height="56" fill="white"/>
</clipPath>
</defs>
</svg>
