<svg width="56" height="56" viewBox="0 0 56 56" fill="none" xmlns="http://www.w3.org/2000/svg">
<g clip-path="url(#clip0_0_10399)">
<path d="M55.0345 19.3113H48.2758H42.4827V12.5526C42.4827 11.9733 42.0965 11.5871 41.5172 11.5871H28H22.2069V4.82856C22.2069 4.24922 21.8207 3.86304 21.2413 3.86304H7.72417H0.965521C0.386186 3.86304 0 4.24922 0 4.82856V12.5527V20.2769V28.0011V35.7252V43.4494V51.1736C0 51.7529 0.386186 52.1391 0.965521 52.1391H14.4828H28.0001H41.5174H55.0347C55.614 52.1391 56.0002 51.7529 56.0002 51.1736V43.4494V35.7252V28.0011V20.2769C56 19.6976 55.6138 19.3113 55.0345 19.3113ZM41.5173 42.4838H35.7242V36.6906H41.5173H47.3104V42.4838H41.5173ZM28 42.4838H22.2069V36.6906H28H33.7931V42.4838H28ZM14.4827 42.4838H8.68969V36.6906H14.4828H20.2759V42.4838H14.4827ZM1.93104 42.4838V36.6906H6.75864V42.4838H1.93104ZM7.72417 13.5182H13.5173V19.3114H7.72417H1.93104V13.5182H7.72417ZM28 21.2423H33.7931V27.0354H28H22.2069V21.2423H28ZM48.2758 28.9665H54.0689V34.7596H48.2758H42.4827V28.9665H48.2758ZM40.5518 34.7596H34.7586H28.9655V28.9665H34.7586H40.5518V34.7596ZM21.2413 34.7596H15.4482V28.9665H21.2413H27.0345V34.7596H21.2413ZM7.72417 34.7596H1.93104V28.9665H7.72417H13.5173V34.7596H7.72417ZM1.93104 21.2423H6.75864V27.0354H1.93104V21.2423ZM20.2758 27.0354H14.4827H8.68969V21.2423H14.4828H20.2759V27.0354H20.2758ZM49.2413 36.6906H54.0689V42.4838H49.2413V36.6906ZM54.0689 27.0354H49.2413V21.2423H54.0689V27.0354ZM47.3103 27.0354H41.5172H35.724V21.2423H41.5172H47.3103V27.0354ZM40.5518 19.3113H34.7586H28.9655V13.5181H40.5518V19.3113ZM27.0345 19.3113H21.2413H15.4482V13.5181H21.2413H27.0345V19.3113ZM20.2758 11.5872H14.4827H8.68969V5.79408H20.2759V11.5872H20.2758ZM1.93104 5.79408H6.75864V11.5872H1.93104V5.79408ZM1.93104 44.4147H7.72417H13.5173V50.2078H1.93104V44.4147ZM15.4482 44.4147H21.2413H27.0345V50.2078H15.4482V44.4147ZM28.9655 44.4147H34.7586H40.5518V50.2078H28.9655V44.4147ZM54.0689 50.2078H42.4828V44.4147H48.2759H54.069V50.2078H54.0689Z" fill="black"/>
</g>
<defs>
<clipPath id="clip0_0_10399">
<rect width="56" height="56" fill="white" transform="translate(0 0.000976562)"/>
</clipPath>
</defs>
</svg>
