<svg width="56" height="57" viewBox="0 0 56 57" fill="none" xmlns="http://www.w3.org/2000/svg">
<g clip-path="url(#clip0_0_10406)">
<path d="M0 0.798828V56.7988H56V0.798828H0ZM52.7188 53.5176H3.28125V4.08008H52.7188V53.5176Z" fill="black"/>
<path d="M49.4102 7.38843H6.58984V50.2087H49.4102V7.38843ZM40.5001 13.9783H15.4999L12.1913 10.6697H43.8087L40.5001 13.9783ZM19.7695 22.8883V34.7089L16.4609 38.0175V19.5797L19.7695 22.8883ZM32.9492 23.8494V33.7478H23.0508V23.8494H32.9492ZM22.0897 37.0291H33.9103L37.2189 40.3376H18.7811L22.0897 37.0291ZM36.2305 34.7089V22.8883L39.5391 19.5797V38.0175L36.2305 34.7089ZM33.9103 20.5681H22.0897L18.7811 17.2595H37.2189L33.9103 20.5681ZM13.1797 16.2984V41.2987L9.87109 44.6073V12.9898L13.1797 16.2984ZM15.4999 43.6189H40.5001L43.8087 46.9275H12.1913L15.4999 43.6189ZM42.8203 41.2987V16.2984L46.1289 12.9898V44.6073L42.8203 41.2987Z" fill="black"/>
<path d="M26.3594 27.1514H29.6406V30.4462H26.3594V27.1514Z" fill="black"/>
</g>
<defs>
<clipPath id="clip0_0_10406">
<rect width="56" height="56" fill="white" transform="translate(0 0.798828)"/>
</clipPath>
</defs>
</svg>
