<svg width="30" height="30" viewBox="0 0 30 30" fill="none" xmlns="http://www.w3.org/2000/svg">
<path d="M26.25 3.75H19.6875V1.875C19.6875 1.3575 19.2684 0.9375 18.75 0.9375H11.25C10.7325 0.9375 10.3125 1.3575 10.3125 1.875V3.75H3.75C3.2325 3.75 2.8125 4.17 2.8125 4.6875V7.5C2.8125 8.0175 3.2325 8.4375 3.75 8.4375H4.6875V25.3125C4.6875 27.3806 6.36937 29.0625 8.4375 29.0625H21.5625C23.6306 29.0625 25.3125 27.3806 25.3125 25.3125V8.4375H26.25C26.7684 8.4375 27.1875 8.0175 27.1875 7.5V4.6875C27.1875 4.17 26.7684 3.75 26.25 3.75ZM12.1875 2.8125H17.8125V3.75H12.1875V2.8125ZM23.4375 25.3125C23.4375 26.3466 22.5966 27.1875 21.5625 27.1875H8.4375C7.40344 27.1875 6.5625 26.3466 6.5625 25.3125V8.4375H23.4375V25.3125ZM25.3125 6.5625H4.6875V5.625H11.25H18.75H25.3125V6.5625ZM14.0625 24.375V11.25C14.0625 10.7325 14.4825 10.3125 15 10.3125C15.5175 10.3125 15.9375 10.7325 15.9375 11.25V24.375C15.9375 24.8925 15.5175 25.3125 15 25.3125C14.4825 25.3125 14.0625 24.8925 14.0625 24.375ZM9.375 24.375V11.25C9.375 10.7325 9.795 10.3125 10.3125 10.3125C10.83 10.3125 11.25 10.7325 11.25 11.25V24.375C11.25 24.8925 10.83 25.3125 10.3125 25.3125C9.795 25.3125 9.375 24.8925 9.375 24.375ZM18.75 24.375V11.25C18.75 10.7325 19.1691 10.3125 19.6875 10.3125C20.2059 10.3125 20.625 10.7325 20.625 11.25V24.375C20.625 24.8925 20.2059 25.3125 19.6875 25.3125C19.1691 25.3125 18.75 24.8925 18.75 24.375Z" fill="black"/>
</svg>
