<svg width="30" height="30" viewBox="0 0 30 30" fill="none" xmlns="http://www.w3.org/2000/svg">
<g clip-path="url(#clip0_209_58)">
<path d="M29.7949 3.84762C29.7958 3.08582 29.5706 2.3409 29.1477 1.70721C28.7249 1.07351 28.1235 0.579564 27.4198 0.287918C26.716 -0.00372833 25.9415 -0.0799486 25.1944 0.0689111C24.4473 0.217771 23.7612 0.585013 23.2229 1.12412L5.17488 19.1719C5.05587 19.2909 4.97109 19.4398 4.92943 19.6029L3.43066 25.4732C3.3894 25.6348 3.392 25.8045 3.43819 25.9647C3.48438 26.125 3.5725 26.2701 3.69344 26.3849C3.81439 26.4998 3.96379 26.5803 4.12623 26.6181C4.28868 26.656 4.45828 26.6498 4.61754 26.6003L10.238 24.8517C10.3831 24.8065 10.515 24.7268 10.6224 24.6194L28.6704 6.57141C29.0287 6.2143 29.3125 5.78968 29.5055 5.32214C29.6985 4.85461 29.7969 4.35343 29.7949 3.84762ZM9.46014 23.13L5.66244 24.3115L6.68256 20.3159L22.4766 4.5218L25.2725 7.31748L9.46014 23.13ZM27.3446 5.24561L26.5983 5.99186L23.8025 3.19594L24.5487 2.44969C24.9195 2.07893 25.4224 1.87064 25.9467 1.87064C26.471 1.87064 26.9739 2.07893 27.3446 2.44969C27.7154 2.82045 27.9237 3.32331 27.9237 3.84765C27.9237 4.37199 27.7154 4.87485 27.3446 5.24561ZM20.4713 29.9991H1.14258C0.893938 29.9991 0.655481 29.9004 0.479666 29.7245C0.30385 29.5487 0.205078 29.3103 0.205078 29.0616C0.205078 28.813 0.30385 28.5745 0.479666 28.3987C0.655481 28.2229 0.893938 28.1241 1.14258 28.1241H20.4713C20.7199 28.1241 20.9584 28.2229 21.1342 28.3987C21.31 28.5745 21.4088 28.813 21.4088 29.0616C21.4088 29.3103 21.31 29.5487 21.1342 29.7245C20.9584 29.9004 20.7199 29.9991 20.4713 29.9991Z" fill="black"/>
</g>
<defs>
<clipPath id="clip0_209_58">
<rect width="30" height="30" fill="white"/>
</clipPath>
</defs>
</svg>
