<svg width="30" height="30" viewBox="0 0 30 30" fill="none" xmlns="http://www.w3.org/2000/svg">
<path d="M3.04727 6.00006H17.9993V6.60006C17.9993 7.07745 18.1889 7.53528 18.5265 7.87285C18.864 8.21041 19.3219 8.40005 19.7993 8.40005H22.1993C22.6767 8.40005 23.1345 8.21041 23.4721 7.87285C23.8096 7.53528 23.9993 7.07745 23.9993 6.60006V6.00006H26.7953C26.9544 6.00006 27.107 5.93684 27.2195 5.82432C27.3321 5.7118 27.3953 5.55919 27.3953 5.40005C27.3953 5.24093 27.3321 5.08831 27.2195 4.97579C27.107 4.86327 26.9544 4.80006 26.7953 4.80006H23.9993V4.20006C23.9993 3.72267 23.8096 3.26483 23.4721 2.92726C23.1345 2.5897 22.6767 2.40005 22.1993 2.40005H19.7993C19.3219 2.40005 18.864 2.5897 18.5265 2.92726C18.1889 3.26483 17.9993 3.72267 17.9993 4.20006V4.80006H3.04727C2.88814 4.80006 2.73552 4.86327 2.623 4.97579C2.51048 5.08831 2.44727 5.24093 2.44727 5.40005C2.44727 5.55919 2.51048 5.7118 2.623 5.82432C2.73552 5.93684 2.88814 6.00006 3.04727 6.00006ZM19.1993 4.20006C19.1993 4.04093 19.2625 3.88831 19.375 3.77579C19.4875 3.66327 19.6401 3.60005 19.7993 3.60005H22.1993C22.3584 3.60005 22.511 3.66327 22.6235 3.77579C22.736 3.88831 22.7993 4.04093 22.7993 4.20006V6.60006C22.7993 6.75918 22.736 6.9118 22.6235 7.02432C22.511 7.13684 22.3584 7.20006 22.1993 7.20006H19.7993C19.6401 7.20006 19.4875 7.13684 19.375 7.02432C19.2625 6.9118 19.1993 6.75918 19.1993 6.60006V4.20006Z" fill="#AE2A27"/>
<path d="M26.879 23.9994H21.599V23.3994C21.599 22.922 21.4093 22.4642 21.0718 22.1266C20.7342 21.7891 20.2764 21.5994 19.799 21.5994H17.399C16.9216 21.5994 16.4638 21.7891 16.1262 22.1266C15.7886 22.4642 15.599 22.922 15.599 23.3994V23.9994H3.05898C2.89985 23.9994 2.74724 24.0626 2.63472 24.1752C2.5222 24.2877 2.45898 24.4403 2.45898 24.5994C2.45898 24.7586 2.5222 24.9112 2.63472 25.0237C2.74724 25.1362 2.89985 25.1994 3.05898 25.1994H15.599V25.7994C15.599 26.2768 15.7886 26.7347 16.1262 27.0722C16.4638 27.4098 16.9216 27.5994 17.399 27.5994H19.799C20.2764 27.5994 20.7342 27.4098 21.0718 27.0722C21.4093 26.7347 21.599 26.2768 21.599 25.7994V25.1994H26.879C27.0381 25.1994 27.1907 25.1362 27.3033 25.0237C27.4158 24.9112 27.479 24.7586 27.479 24.5994C27.479 24.4403 27.4158 24.2877 27.3033 24.1752C27.1907 24.0626 27.0381 23.9994 26.879 23.9994ZM20.399 25.7994C20.399 25.9586 20.3358 26.1112 20.2232 26.2237C20.1107 26.3362 19.9581 26.3994 19.799 26.3994H17.399C17.2399 26.3994 17.0872 26.3362 16.9747 26.2237C16.8622 26.1112 16.799 25.9586 16.799 25.7994V23.3994C16.799 23.2403 16.8622 23.0877 16.9747 22.9752C17.0872 22.8626 17.2399 22.7994 17.399 22.7994H19.799C19.9581 22.7994 20.1107 22.8626 20.2232 22.9752C20.3358 23.0877 20.399 23.2403 20.399 23.3994V25.7994Z" fill="#AE2A27"/>
<path d="M10.1995 18.0002H12.5995C13.0769 18.0002 13.5348 17.8105 13.8723 17.473C14.2099 17.1354 14.3995 16.6776 14.3995 16.2002V15.6002H26.9395C27.0987 15.6002 27.2513 15.537 27.3638 15.4244C27.4763 15.3119 27.5395 15.1593 27.5395 15.0002C27.5395 14.8411 27.4763 14.6884 27.3638 14.5759C27.2513 14.4634 27.0987 14.4002 26.9395 14.4002H14.3995V13.8002C14.3995 13.3228 14.2099 12.865 13.8723 12.5274C13.5348 12.1898 13.0769 12.0002 12.5995 12.0002H10.1995C9.72214 12.0002 9.2643 12.1898 8.92674 12.5274C8.58917 12.865 8.39953 13.3228 8.39953 13.8002V14.4002H3.11953C2.9604 14.4002 2.80779 14.4634 2.69527 14.5759C2.58275 14.6884 2.51953 14.8411 2.51953 15.0002C2.51953 15.1593 2.58275 15.3119 2.69527 15.4244C2.80779 15.537 2.9604 15.6002 3.11953 15.6002H8.39953V16.2002C8.39953 16.6776 8.58917 17.1354 8.92674 17.473C9.2643 17.8105 9.72214 18.0002 10.1995 18.0002ZM9.59953 13.8002C9.59953 13.6411 9.66275 13.4884 9.77527 13.3759C9.88779 13.2634 10.0404 13.2002 10.1995 13.2002H12.5995C12.7587 13.2002 12.9113 13.2634 13.0238 13.3759C13.1363 13.4884 13.1995 13.6411 13.1995 13.8002V16.2002C13.1995 16.3593 13.1363 16.5119 13.0238 16.6244C12.9113 16.737 12.7587 16.8002 12.5995 16.8002H10.1995C10.0404 16.8002 9.88779 16.737 9.77527 16.6244C9.66275 16.5119 9.59953 16.3593 9.59953 16.2002V13.8002Z" fill="#AE2A27"/>
</svg>
