<svg width="56" height="56" viewBox="0 0 56 56" fill="none" xmlns="http://www.w3.org/2000/svg">
<path d="M52.8694 16.5813L28.4411 1.78803C28.3056 1.70536 28.1499 1.66162 27.9912 1.66162C27.8324 1.66162 27.6767 1.70536 27.5412 1.78803L3.1287 16.5813C3.00342 16.6608 2.90116 16.7718 2.83208 16.9031C2.763 17.0344 2.72951 17.1815 2.73495 17.3298V53.4637C2.73495 53.9469 3.07652 54.3595 3.55974 54.3595H8.76895C9.00123 54.354 9.22187 54.2566 9.38245 54.0887C9.54304 53.9207 9.63047 53.696 9.62557 53.4637V28.6563H46.3756V53.4637C46.3707 53.696 46.4581 53.9207 46.6187 54.0887C46.7793 54.2566 46.9999 54.354 47.2322 54.3595H52.4414C52.9246 54.3595 53.2662 53.9469 53.2662 53.4637V17.33C53.2711 17.1814 53.237 17.0342 53.1674 16.9028C53.0978 16.7715 52.9951 16.6607 52.8694 16.5813ZM9.62557 26.9063V23.4063H46.3756V26.9063H9.62557ZM51.5162 52.6095H48.1256V22.5393C48.1217 22.3045 48.0261 22.0806 47.8591 21.9155C47.692 21.7505 47.467 21.6574 47.2322 21.6563H8.76895C8.53413 21.6574 8.30909 21.7505 8.14209 21.9155C7.97508 22.0806 7.8794 22.3045 7.87557 22.5393V52.6095H4.48495V17.8233L28.0006 3.55936L51.5162 17.8233V52.6095Z" fill="black"/>
<path d="M41.5921 38.4881L39.2796 32.23C39.0707 31.6667 38.6956 31.1802 38.204 30.835C37.7124 30.4897 37.1274 30.3021 36.5267 30.2969H19.8858C19.2851 30.3022 18.7002 30.4898 18.2086 30.8351C17.7169 31.1803 17.3418 31.6667 17.1329 32.23L14.8526 38.3926L13.9542 39.24C13.5207 39.6134 13.1733 40.0762 12.9357 40.5967C12.6982 41.1171 12.5763 41.6829 12.5783 42.255V53.4636C12.5739 53.6961 12.6617 53.9209 12.8227 54.0888C12.9836 54.2567 13.2045 54.354 13.437 54.3594H19.276C19.3906 54.3565 19.5035 54.331 19.6083 54.2844C19.7131 54.2378 19.8076 54.171 19.8865 54.0878C19.9654 54.0045 20.0271 53.9066 20.068 53.7995C20.109 53.6924 20.1284 53.5782 20.1252 53.4636V50.3125H35.8752V53.4636C35.8719 53.5782 35.8913 53.6924 35.9323 53.7995C35.9732 53.9066 36.0349 54.0045 36.1138 54.0878C36.1927 54.171 36.2872 54.2378 36.392 54.2844C36.4968 54.331 36.6097 54.3565 36.7243 54.3594H42.5633C42.7958 54.354 43.0167 54.2567 43.1777 54.0888C43.3386 53.9209 43.4265 53.6961 43.422 53.4636V42.0189C43.4226 41.4845 43.3154 40.9554 43.1068 40.4633C42.8982 39.9713 42.5925 39.5263 42.208 39.1552L41.5921 38.4881ZM18.7738 32.8562C18.8569 32.6255 19.0073 32.4251 19.2055 32.2808C19.4038 32.1365 19.6408 32.055 19.8858 32.0469H36.5267C36.7718 32.055 37.0088 32.1365 37.207 32.2808C37.4053 32.4251 37.5557 32.6255 37.6387 32.8562L39.5543 38.0625H16.8581L18.7738 32.8562ZM18.3752 52.6094H14.3283V50.3125H18.3752V52.6094ZM37.6252 52.6094V50.3125H41.672V52.6094H37.6252ZM41.672 48.5625H14.3283V42.255C14.3265 41.9339 14.3949 41.6163 14.5286 41.3244C14.6624 41.0325 14.8582 40.7733 15.1025 40.565C15.1126 40.5565 15.1184 40.5662 15.1281 40.5571L15.9448 39.8125H40.4L40.9557 40.3878C40.968 40.401 40.9726 40.4045 40.9857 40.4169C41.2033 40.623 41.3765 40.8714 41.4945 41.1469C41.6126 41.4224 41.673 41.7192 41.672 42.0189V48.5625Z" fill="black"/>
<path d="M18.6472 41.8906H18.1426C17.4609 41.8906 16.8071 42.1614 16.3251 42.6435C15.8431 43.1255 15.5723 43.7792 15.5723 44.4609C15.5723 45.1426 15.8431 45.7964 16.3251 46.2784C16.8071 46.7604 17.4609 47.0312 18.1426 47.0312H18.6472C19.3289 47.0312 19.9827 46.7604 20.4647 46.2784C20.9467 45.7964 21.2175 45.1426 21.2175 44.4609C21.2175 43.7792 20.9467 43.1255 20.4647 42.6435C19.9827 42.1614 19.3289 41.8906 18.6472 41.8906ZM18.6472 45.2812H18.1426C17.925 45.2812 17.7164 45.1948 17.5625 45.041C17.4087 44.8871 17.3223 44.6785 17.3223 44.4609C17.3223 44.2434 17.4087 44.0347 17.5625 43.8809C17.7164 43.727 17.925 43.6406 18.1426 43.6406H18.6472C18.8648 43.6406 19.0734 43.727 19.2273 43.8809C19.3811 44.0347 19.4675 44.2434 19.4675 44.4609C19.4675 44.6785 19.3811 44.8871 19.2273 45.041C19.0734 45.1948 18.8648 45.2812 18.6472 45.2812Z" fill="black"/>
<path d="M37.8582 41.8906H37.3535C36.6718 41.8906 36.0181 42.1614 35.536 42.6435C35.054 43.1255 34.7832 43.7792 34.7832 44.4609C34.7832 45.1426 35.054 45.7964 35.536 46.2784C36.0181 46.7604 36.6718 47.0312 37.3535 47.0312H37.8582C38.5399 47.0312 39.1936 46.7604 39.6757 46.2784C40.1577 45.7964 40.4285 45.1426 40.4285 44.4609C40.4285 43.7792 40.1577 43.1255 39.6757 42.6435C39.1936 42.1614 38.5399 41.8906 37.8582 41.8906ZM37.8582 45.2812H37.3535C37.136 45.2812 36.9273 45.1948 36.7735 45.041C36.6196 44.8871 36.5332 44.6785 36.5332 44.4609C36.5332 44.2434 36.6196 44.0347 36.7735 43.8809C36.9273 43.727 37.136 43.6406 37.3535 43.6406H37.8582C38.0757 43.6406 38.2844 43.727 38.4382 43.8809C38.5921 44.0347 38.6785 44.2434 38.6785 44.4609C38.6785 44.6785 38.5921 44.8871 38.4382 45.041C38.2844 45.1948 38.0757 45.2812 37.8582 45.2812Z" fill="black"/>
<path d="M33.25 42.875C33.25 42.6429 33.1578 42.4204 32.9937 42.2563C32.8296 42.0922 32.6071 42 32.375 42H23.5156C23.2836 42 23.061 42.0922 22.8969 42.2563C22.7328 42.4204 22.6406 42.6429 22.6406 42.875V46.1562C22.6406 46.3883 22.7328 46.6109 22.8969 46.775C23.061 46.9391 23.2836 47.0312 23.5156 47.0312H32.375C32.6071 47.0312 32.8296 46.9391 32.9937 46.775C33.1578 46.6109 33.25 46.3883 33.25 46.1562V42.875ZM31.6094 45.2812H24.3906V43.75H31.6094V45.2812Z" fill="black"/>
</svg>
