<svg width="56" height="56" viewBox="0 0 56 56" fill="none" xmlns="http://www.w3.org/2000/svg">
<g clip-path="url(#clip0_0_9460)">
<path d="M41.2029 15.0132C39.8753 15.0132 38.7953 16.0932 38.7953 17.4208C38.7953 18.4438 39.437 19.3193 40.3389 19.6673C39.9993 23.3336 36.9072 26.2138 33.1538 26.2138H30.327V12.8646H33.1538C37.817 12.8646 41.6493 9.25121 42.0048 4.6778C42.9392 4.34672 43.6104 3.45455 43.6104 2.40805C43.6104 1.08046 42.5304 0.000488281 41.2029 0.000488281C39.8753 0.000488281 38.7953 1.08046 38.7953 2.40805C38.7953 3.43114 39.437 4.30658 40.3389 4.65472C39.9993 8.32097 36.9072 11.2013 33.1538 11.2013H30.327V3.99136C30.327 3.35589 30.0757 2.76221 29.6193 2.31989C29.1828 1.89683 28.6076 1.66386 27.9997 1.66386C27.2253 1.66386 26.504 2.04733 26.0702 2.68958C25.8097 3.07502 25.6722 3.5251 25.6722 3.99147V11.2014H22.8454C19.0919 11.2014 15.9999 8.32097 15.6603 4.65483C16.5622 4.30691 17.2039 3.43136 17.2039 2.40816C17.2038 1.08046 16.1237 0.000488281 14.7962 0.000488281C13.4686 0.000488281 12.3887 1.08046 12.3887 2.40805C12.3887 3.45444 13.0599 4.34661 13.9943 4.6778C14.3498 9.25132 18.1822 12.8646 22.8452 12.8646H25.672V26.214H22.8452C19.0918 26.214 15.9998 23.3336 15.6602 19.6674C16.5621 19.3194 17.2038 18.444 17.2038 17.4209C17.2038 16.0933 16.1238 15.0133 14.7962 15.0133C13.4686 15.0133 12.3887 16.0933 12.3887 17.4209C12.3887 18.4673 13.0599 19.3594 13.9943 19.6906C14.3498 24.2641 18.1822 27.8774 22.8452 27.8774H25.672V47.7963H21.558V51.0668H17.6682V56.0005H38.331V51.0666H34.4412V47.7961H30.327V27.8773H33.1538C37.817 27.8773 41.6493 24.2639 42.0048 19.6905C42.9392 19.3594 43.6104 18.4673 43.6104 17.4208C43.6104 16.0933 42.5304 15.0132 41.2029 15.0132ZM41.2029 1.66386C41.6131 1.66386 41.947 1.99779 41.947 2.40805C41.947 2.81832 41.6131 3.15224 41.2029 3.15224C40.7926 3.15224 40.4587 2.81832 40.4587 2.40805C40.4587 1.99779 40.7926 1.66386 41.2029 1.66386ZM14.7962 3.15224C14.386 3.15224 14.052 2.81832 14.052 2.40805C14.052 1.99779 14.3859 1.66386 14.7962 1.66386C15.2065 1.66386 15.5404 1.99779 15.5404 2.40805C15.5404 2.81832 15.2065 3.15224 14.7962 3.15224ZM14.7962 18.1649C14.386 18.1649 14.052 17.831 14.052 17.4208C14.052 17.0105 14.386 16.6766 14.7962 16.6766C15.2065 16.6766 15.5404 17.0105 15.5404 17.4208C15.5404 17.8311 15.2065 18.1649 14.7962 18.1649ZM27.3353 12.8646H27.9995V11.2013H27.3354V3.99136C27.3354 3.85814 27.3746 3.72996 27.4484 3.62058C27.5723 3.43694 27.7785 3.32724 27.9995 3.32724C28.173 3.32724 28.3371 3.39363 28.4617 3.51438C28.5919 3.64071 28.6637 3.81013 28.6637 3.99147V26.2141H27.9995V27.8774H28.6637V47.7963H27.3353V12.8646ZM36.6675 52.73V54.3371H19.3315V52.73H21.5579H34.441H36.6675ZM30.3272 49.4595H32.7777V51.0667H23.2213V49.4595H25.6719H30.3272ZM41.2029 18.1649C40.7926 18.1649 40.4587 17.831 40.4587 17.4208C40.4587 17.0105 40.7926 16.6766 41.2029 16.6766C41.6131 16.6766 41.947 17.0105 41.947 17.4208C41.947 17.8311 41.6133 18.1649 41.2029 18.1649Z" fill="black"/>
</g>
<defs>
<clipPath id="clip0_0_9460">
<rect width="56" height="56" fill="white" transform="translate(0 0.000488281)"/>
</clipPath>
</defs>
</svg>
