<svg width="56" height="56" viewBox="0 0 56 56" fill="none" xmlns="http://www.w3.org/2000/svg">
<g clip-path="url(#clip0_0_9530)">
<path d="M55.8231 33.9869L31.5565 0.386859C31.3812 0.143828 31.0997 -0.000109313 30.8 6.22889e-08H25.2C24.9003 -0.000109313 24.6188 0.143828 24.4435 0.386859L0.176859 33.9869C0.0619063 34.1459 9.11495e-08 34.3372 9.11495e-08 34.5333V55.0666C-0.000109284 55.3141 0.0982188 55.5516 0.273328 55.7267C0.448328 55.9017 0.685781 56 0.933406 56H55.0667C55.3142 56.0001 55.5517 55.9018 55.7268 55.7267C55.9018 55.5517 56.0001 55.3142 56.0001 55.0666V34.5333C56 34.3372 55.9381 34.1459 55.8231 33.9869ZM1.8667 39.2H3.73341V50.4H1.8667V39.2ZM54.1333 54.1333H1.8667V52.2666H54.1334V54.1333H54.1333ZM24.4256 50.4H20.6896L5.6 40.561V39.2H7.25539L24.4256 50.4ZM10.6708 39.2H25.2V48.6773L10.6708 39.2ZM17.2718 50.4H5.6V42.7895L17.2718 50.4ZM27.0667 50.4V39.2H28.9334V50.4H27.0667ZM35.3104 50.4H31.5744L48.7446 39.2H50.4V40.561L35.3104 50.4ZM50.4 42.7895V50.4H38.7282L50.4 42.7895ZM30.8 48.6773V39.2H45.3292L30.8 48.6773ZM54.1333 50.4H52.2666V39.2H54.1333V50.4ZM54.1333 37.3333H1.8667V34.835L25.6776 1.86659H30.3225L54.1334 34.835V37.3333H54.1333Z" fill="black"/>
<path d="M26.7303 5.30774C26.7113 5.29155 26.7013 5.26902 26.6808 5.25414C26.6511 5.2385 26.6204 5.22461 26.5892 5.21258C26.48 5.14728 26.3573 5.10769 26.2305 5.09686C26.1987 5.08855 26.1664 5.08199 26.1339 5.07739C26.1091 5.07739 26.0883 5.08953 26.064 5.0915C25.8197 5.11589 25.5935 5.23139 25.4304 5.41503C25.4145 5.43396 25.392 5.4438 25.3774 5.46436L4.77847 33.987C4.57306 34.271 4.5443 34.6463 4.70387 34.9583C4.86345 35.2705 5.18447 35.4668 5.53502 35.4667H26.1339C26.3815 35.4668 26.6189 35.3685 26.794 35.1934C26.969 35.0184 27.0673 34.7809 27.0673 34.5333V6.01069C27.0673 5.98521 27.0549 5.96388 27.0529 5.93894C27.028 5.69569 26.9129 5.47049 26.7303 5.30774ZM25.2006 33.6001H7.3607L25.2006 8.8971V33.6001Z" fill="black"/>
<path d="M29.8669 5.07739C29.8344 5.0821 29.8023 5.08855 29.7704 5.09686C29.6438 5.10747 29.5213 5.14695 29.4122 5.21225C29.3807 5.22439 29.3499 5.2385 29.32 5.25425C29.2995 5.26913 29.2895 5.29155 29.2706 5.30785C29.0879 5.4706 28.9729 5.6958 28.948 5.93916C28.9461 5.9641 28.9336 5.98542 28.9336 6.0108V34.5335C28.9335 34.781 29.0318 35.0185 29.2069 35.1936C29.382 35.3686 29.6194 35.4669 29.867 35.4669H50.4658C50.8164 35.467 51.1374 35.2707 51.297 34.9585C51.4565 34.6464 51.4277 34.2712 51.2224 33.9872L30.6233 5.46425C30.6087 5.44391 30.5864 5.43406 30.5705 5.41536C30.4074 5.23161 30.1811 5.11589 29.9366 5.0915C29.9123 5.08964 29.8916 5.07739 29.8669 5.07739ZM30.8002 8.8971L48.6401 33.6001H30.8002V8.8971Z" fill="black"/>
</g>
<defs>
<clipPath id="clip0_0_9530">
<rect width="56" height="56" fill="white"/>
</clipPath>
</defs>
</svg>
