<svg width="56" height="56" viewBox="0 0 56 56" fill="none" xmlns="http://www.w3.org/2000/svg">
<g clip-path="url(#clip0_0_9447)">
<path d="M24.2667 51.3333V15.8666C24.2635 13.2904 22.1762 11.2031 19.6 11.2H4.66667C2.09043 11.2031 0.00319011 13.2904 0 15.8666V51.3333C0.00319011 53.9095 2.09043 55.9968 4.66667 56H19.6C22.1762 55.9968 24.2635 53.9095 24.2667 51.3333ZM1.86667 15.8666C1.86667 14.3203 3.12038 13.0666 4.66667 13.0666H19.6C21.1463 13.0666 22.4 14.3203 22.4 15.8666V28H1.86667V15.8666ZM1.86667 51.3333V29.8666H22.4V51.3333C22.4 52.8796 21.1463 54.1333 19.6 54.1333H4.66667C3.12038 54.1333 1.86667 52.8796 1.86667 51.3333Z" fill="black"/>
<path d="M55.0661 33.5999H41.9995V25.1999C41.9995 24.169 42.8353 23.3332 43.8661 23.3332C44.897 23.3332 45.7328 24.169 45.7328 25.1999V26.1332C45.7328 26.6487 46.1507 27.0666 46.6661 27.0666C47.1816 27.0666 47.5995 26.6487 47.5995 26.1332V25.1999C47.5995 23.1382 45.9279 21.4666 43.8661 21.4666C41.8044 21.4666 40.1328 23.1382 40.1328 25.1999V29.8666H38.2661V28.9332C38.2661 28.4178 37.8482 27.9999 37.3328 27.9999C36.8174 27.9999 36.3995 28.4178 36.3995 28.9332V30.7999C36.3995 31.3153 36.8174 31.7332 37.3328 31.7332H40.1328V33.5999H27.0661C26.5507 33.5999 26.1328 34.0178 26.1328 34.5332V55.0666C26.1328 55.582 26.5507 55.9999 27.0661 55.9999H55.0661C55.5816 55.9999 55.9995 55.582 55.9995 55.0666V34.5332C55.9995 34.0178 55.5816 33.5999 55.0661 33.5999ZM27.9995 35.4666H54.1328V37.3332H27.9995V35.4666ZM27.9995 39.1999H40.1328V54.1332H27.9995V39.1999ZM54.1328 54.1332H41.9995V39.1999H54.1328V54.1332Z" fill="black"/>
<path d="M37.3337 42.9333C36.8183 42.9333 36.4004 43.3513 36.4004 43.8667V47.6C36.4004 48.1155 36.8183 48.5334 37.3337 48.5334C37.8492 48.5334 38.2671 48.1155 38.2671 47.6V43.8667C38.2671 43.3513 37.8492 42.9333 37.3337 42.9333Z" fill="black"/>
<path d="M44.8005 48.5334C45.3159 48.5334 45.7338 48.1155 45.7338 47.6V43.8667C45.7338 43.3513 45.3159 42.9333 44.8005 42.9333C44.2851 42.9333 43.8672 43.3513 43.8672 43.8667V47.6C43.8672 48.1155 44.2851 48.5334 44.8005 48.5334Z" fill="black"/>
<path d="M8.39909 31.7334H4.66576C4.15033 31.7334 3.73242 32.1513 3.73242 32.6667C3.73242 33.1822 4.15033 33.6001 4.66576 33.6001H8.39909C8.91452 33.6001 9.33242 33.1822 9.33242 32.6667C9.33242 32.1513 8.91452 31.7334 8.39909 31.7334Z" fill="black"/>
<path d="M8.39909 24.2666H4.66576C4.15033 24.2666 3.73242 24.6845 3.73242 25.1999C3.73242 25.7154 4.15033 26.1333 4.66576 26.1333H8.39909C8.91452 26.1333 9.33242 25.7154 9.33242 25.1999C9.33242 24.6845 8.91452 24.2666 8.39909 24.2666Z" fill="black"/>
<path d="M55.0661 0H27.0661C26.5507 0 26.1328 0.417904 26.1328 0.933333V16.8C26.1328 17.3154 26.5507 17.7333 27.0661 17.7333H55.0661C55.5816 17.7333 55.9995 17.3154 55.9995 16.8V0.933333C55.9995 0.417904 55.5816 0 55.0661 0ZM27.9995 1.86667H40.1328V15.8667H27.9995V1.86667ZM54.1328 15.8667H41.9995V1.86667H54.1328V15.8667Z" fill="black"/>
<path d="M44.8005 13.9999C45.3159 13.9999 45.7338 13.582 45.7338 13.0666V9.33324C45.7338 8.81781 45.3159 8.3999 44.8005 8.3999C44.2851 8.3999 43.8672 8.81781 43.8672 9.33324V13.0666C43.8672 13.582 44.2851 13.9999 44.8005 13.9999Z" fill="black"/>
<path d="M37.3337 8.3999C36.8183 8.3999 36.4004 8.81781 36.4004 9.33324V13.0666C36.4004 13.582 36.8183 13.9999 37.3337 13.9999C37.8492 13.9999 38.2671 13.582 38.2671 13.0666V9.33324C38.2671 8.81781 37.8492 8.3999 37.3337 8.3999Z" fill="black"/>
</g>
<defs>
<clipPath id="clip0_0_9447">
<rect width="56" height="56" fill="white"/>
</clipPath>
</defs>
</svg>
