<svg width="25" height="25" viewBox="0 0 25 25" fill="none" xmlns="http://www.w3.org/2000/svg">
<g clip-path="url(#clip0_0_3576)">
<path d="M11.7187 23.4384H1.56252V1.56343H11.7187C12.15 1.56343 12.5 1.21341 12.5 0.782204C12.5 0.351003 12.1499 0.000976562 11.7187 0.000976562H0.781228C0.350026 0.000976562 0 0.350938 0 0.782204V24.2196C0 24.6509 0.350026 25.0008 0.781228 25.0008H11.7187C12.1499 25.0008 12.4999 24.6508 12.4999 24.2196C12.5 23.7884 12.1499 23.4384 11.7187 23.4384Z" fill="black"/>
<path d="M24.7729 11.955L19.3823 6.48701C19.0769 6.17842 18.5823 6.1792 18.2776 6.48701C17.9722 6.79483 17.9722 7.2948 18.2776 7.60262L22.3402 11.7237H6.25193C5.82066 11.7237 5.4707 12.0768 5.4707 12.5128C5.4707 12.9487 5.82073 13.3019 6.25193 13.3019H22.3402L18.2776 17.423C17.9722 17.7316 17.9722 18.2308 18.2776 18.5386C18.5831 18.8472 19.0776 18.8472 19.3823 18.5386L24.7722 13.0706C25.0737 12.7667 25.0769 12.2581 24.7729 11.955Z" fill="black"/>
</g>
<defs>
<clipPath id="clip0_0_3576">
<rect width="25" height="25" fill="white"/>
</clipPath>
</defs>
</svg>
