<svg width="56" height="49" viewBox="0 0 56 49" fill="none" xmlns="http://www.w3.org/2000/svg">
<path d="M33.0975 25.3217C32.5371 25.3217 31.9893 25.4962 31.5233 25.8231C31.0573 26.1501 30.6941 26.6147 30.4797 27.1584C30.2652 27.702 30.2091 28.3002 30.3184 28.8774C30.4277 29.4545 30.6976 29.9846 31.0939 30.4007C31.4902 30.8168 31.9951 31.1002 32.5447 31.215C33.0944 31.3298 33.6641 31.2709 34.1819 31.0457C34.6997 30.8205 35.1422 30.4392 35.4536 29.9499C35.765 29.4606 35.9311 28.8854 35.9311 28.2969C35.9311 27.9062 35.8578 27.5193 35.7154 27.1584C35.573 26.7974 35.3643 26.4694 35.1012 26.1931C34.8381 25.9169 34.5257 25.6977 34.1819 25.5482C33.8381 25.3987 33.4697 25.3217 33.0975 25.3217ZM33.0975 29.2273C32.9223 29.2273 32.751 29.1728 32.6053 29.0705C32.4595 28.9683 32.346 28.823 32.2789 28.653C32.2118 28.483 32.1943 28.2959 32.2285 28.1154C32.2627 27.935 32.347 27.7692 32.471 27.6391C32.5949 27.5089 32.7528 27.4203 32.9247 27.3844C33.0966 27.3485 33.2747 27.367 33.4366 27.4374C33.5986 27.5078 33.737 27.627 33.8343 27.78C33.9317 27.933 33.9837 28.1129 33.9837 28.2969C33.9876 28.4217 33.9676 28.546 33.9248 28.6624C33.882 28.7789 33.8174 28.8851 33.7347 28.9747C33.652 29.0644 33.553 29.1357 33.4435 29.1844C33.3341 29.233 33.2164 29.2581 33.0975 29.258V29.2273ZM34.9574 5.89588H21.0523C20.7941 5.89588 20.5464 6.0036 20.3638 6.19534C20.1812 6.38708 20.0786 6.64713 20.0786 6.91829V22.5919C20.0786 22.863 20.1812 23.1231 20.3638 23.3148C20.5464 23.5066 20.7941 23.6143 21.0523 23.6143H34.9574C35.2157 23.6143 35.4633 23.5066 35.6459 23.3148C35.8286 23.1231 35.9311 22.863 35.9311 22.5919V6.91829C35.9311 6.64713 35.8286 6.38708 35.6459 6.19534C35.4633 6.0036 35.2157 5.89588 34.9574 5.89588ZM33.9837 21.5695H22.0261V7.9407H33.9837V21.5695ZM53.6533 17.0197H44.8896C44.2825 17.0331 43.7045 17.295 43.2788 17.7496C42.8531 18.2042 42.6134 18.8155 42.611 19.4531V21.2321C42.6136 21.8757 42.8589 22.492 43.2932 22.9461C43.7276 23.4002 44.3156 23.6552 44.9285 23.6552H53.6922C54.2984 23.6445 54.8765 23.3848 55.3024 22.9318C55.7284 22.4788 55.9683 21.8686 55.9708 21.2321V19.494C55.9746 19.1714 55.9176 18.8511 55.803 18.5518C55.6884 18.2525 55.5185 17.9799 55.303 17.7499C55.0875 17.5198 54.8308 17.3369 54.5477 17.2116C54.2645 17.0863 53.9605 17.0211 53.6533 17.0197ZM54.0233 21.2321C54.0208 21.3333 53.9807 21.4295 53.9115 21.5002C53.8424 21.5709 53.7498 21.6104 53.6533 21.6104H44.8896C44.8 21.6004 44.7169 21.5565 44.656 21.4869C44.595 21.4172 44.5604 21.3266 44.5585 21.2321V19.494C44.5585 19.3909 44.5975 19.2921 44.6669 19.2192C44.7363 19.1464 44.8304 19.1055 44.9285 19.1055H53.6922C53.7904 19.1055 53.8845 19.1464 53.9539 19.2192C54.0233 19.2921 54.0622 19.3909 54.0622 19.494L54.0233 21.2321ZM13.3987 21.2321V19.494C13.3962 18.8494 13.1512 18.2321 12.7171 17.7763C12.283 17.3206 11.6951 17.0633 11.0812 17.0606H2.31751C1.70366 17.0633 1.11568 17.3206 0.681615 17.7763C0.247552 18.2321 0.00256309 18.8494 0 19.494V21.2321C0.00257546 21.8757 0.247878 22.492 0.682216 22.9461C1.11655 23.4002 1.70455 23.6552 2.31751 23.6552H11.0812C11.6942 23.6552 12.2822 23.4002 12.7165 22.9461C13.1508 22.492 13.3961 21.8757 13.3987 21.2321ZM1.98644 21.2321V19.494C1.98644 19.3909 2.02542 19.2921 2.09481 19.2192C2.16421 19.1464 2.25832 19.1055 2.35646 19.1055H11.1202C11.2183 19.1055 11.3124 19.1464 11.3818 19.2192C11.4512 19.2921 11.4902 19.3909 11.4902 19.494V21.2321C11.4876 21.3333 11.4475 21.4295 11.3784 21.5002C11.3093 21.5709 11.2166 21.6104 11.1202 21.6104H2.35646C2.25999 21.6104 2.16732 21.5709 2.0982 21.5002C2.02908 21.4295 1.98898 21.3333 1.98644 21.2321ZM53.7214 0.783817H44.9577C44.6547 0.778401 44.3536 0.835727 44.0716 0.952522C43.7896 1.06932 43.5323 1.24329 43.3144 1.46451C43.0965 1.68573 42.9222 1.94986 42.8015 2.24181C42.6808 2.53376 42.6161 2.84782 42.611 3.16604V12.7563C42.6097 13.0753 42.6685 13.3915 42.7839 13.6867C42.8993 13.9819 43.0691 14.2502 43.2835 14.4763C43.4979 14.7024 43.7528 14.8818 44.0334 15.0042C44.314 15.1266 44.6149 15.1896 44.9188 15.1896H53.6825C54.2971 15.1896 54.8866 14.9332 55.3212 14.4769C55.7558 14.0206 56 13.4016 56 12.7563V3.16604C55.9875 2.53659 55.7431 1.93674 55.3182 1.49251C54.8933 1.04828 54.321 0.794261 53.7214 0.783817ZM54.0915 12.8074C54.0915 12.9104 54.0525 13.0093 53.9831 13.0821C53.9137 13.155 53.8196 13.1959 53.7214 13.1959H44.9577C44.8613 13.1932 44.7697 13.1511 44.7024 13.0786C44.6351 13.006 44.5974 12.9087 44.5975 12.8074V3.16604C44.5974 3.06474 44.6351 2.96744 44.7024 2.89487C44.7697 2.82229 44.8613 2.78019 44.9577 2.77752H53.7214C53.8196 2.77752 53.9137 2.81845 53.9831 2.89132C54.0525 2.96418 54.0915 3.063 54.0915 3.16604V12.8074ZM3.86576 14.6682H9.61085C9.9612 14.6664 10.305 14.5684 10.6081 14.3838C10.9111 14.1991 11.1628 13.9344 11.3381 13.6159C11.5134 13.2974 11.6062 12.9362 11.6073 12.5684C11.6083 12.2005 11.5176 11.8388 11.3441 11.5191L8.42288 6.2844C8.24631 5.96614 7.99334 5.70206 7.6892 5.51852C7.38507 5.33498 7.04041 5.23838 6.68962 5.23838C6.33883 5.23838 5.99417 5.33498 5.69004 5.51852C5.3859 5.70206 5.13293 5.96614 4.95636 6.2844L2.03512 11.5191C1.86164 11.8388 1.77091 12.2005 1.77197 12.5684C1.77302 12.9362 1.86582 13.2974 2.04113 13.6159C2.21644 13.9344 2.46814 14.1991 2.77118 14.3838C3.07422 14.5684 3.41803 14.6664 3.76839 14.6682H3.86576ZM6.69936 7.30681L5.8522 6.7956L6.77726 7.30681L9.61085 12.6234L3.81708 12.5416L6.69936 7.30681ZM24.2267 18.9725C24.0388 18.7878 23.9281 18.5324 23.919 18.2623C23.9099 17.9921 24.003 17.7292 24.1781 17.5309L30.1666 10.7728C30.3435 10.5735 30.5885 10.4561 30.8479 10.4465C31.1072 10.437 31.3595 10.5359 31.5493 10.7217C31.7391 10.9074 31.8509 11.1647 31.86 11.437C31.8691 11.7093 31.7749 11.9742 31.598 12.1735L25.5997 18.9214C25.4238 19.1188 25.1806 19.235 24.9233 19.2446C24.666 19.2541 24.4155 19.1563 24.2267 18.9725ZM49.2617 46.0562H40.7317L40.7999 3.16604C40.8022 2.84569 40.744 2.52804 40.6287 2.23145C40.5134 1.93487 40.3432 1.66524 40.128 1.43816C39.681 1.00419 39.091 0.769562 38.4823 0.783817H17.6637C17.0591 0.783615 16.4783 1.03155 16.0453 1.4747C15.6123 1.91786 15.3614 2.52114 15.3462 3.15581L15.278 46.0971H6.74804C6.48979 46.0971 6.24212 46.2049 6.0595 46.3966C5.87689 46.5883 5.7743 46.8484 5.7743 47.1196C5.7743 47.3907 5.87689 47.6508 6.0595 47.8425C6.24212 48.0343 6.48979 48.142 6.74804 48.142H49.2617C49.5199 48.142 49.7676 48.0343 49.9502 47.8425C50.1328 47.6508 50.2354 47.3907 50.2354 47.1196C50.2354 46.8484 50.1328 46.5883 49.9502 46.3966C49.7676 46.2049 49.5199 46.0971 49.2617 46.0971V46.0562ZM17.2937 3.16604C17.2937 3.063 17.3327 2.96418 17.4021 2.89132C17.4715 2.81845 17.5656 2.77752 17.6637 2.77752H38.4823C38.5309 2.77752 38.5791 2.78757 38.624 2.8071C38.6688 2.82662 38.7096 2.85524 38.744 2.89132C38.7784 2.92739 38.8056 2.97022 38.8242 3.01736C38.8428 3.0645 38.8524 3.11502 38.8524 3.16604L38.7842 46.1074H17.2255L17.2937 3.16604Z" fill="black"/>
</svg>
