<svg width="56" height="56" viewBox="0 0 56 56" fill="none" xmlns="http://www.w3.org/2000/svg">
<g clip-path="url(#clip0_0_9521)">
<path d="M41.9159 53.813H31.6349V38.4203C40.5973 36.7154 47.3938 28.8266 47.3938 19.3811C47.3938 8.6946 38.6941 0.000488281 28.0006 0.000488281C17.3071 0.000488281 8.60742 8.6946 8.60742 19.3811C8.60742 28.8265 15.4039 36.7154 24.3663 38.4203V53.813H14.0852C13.4812 53.813 12.9915 54.3028 12.9915 54.9067C12.9915 55.5107 13.4812 56.0005 14.0852 56.0005H41.9158C42.5199 56.0005 43.0096 55.5107 43.0096 54.9067C43.0096 54.3028 42.52 53.813 41.9159 53.813ZM10.7949 19.3811C10.7949 9.90089 18.5133 2.18799 28.0006 2.18799C37.4879 2.18799 45.2063 9.90089 45.2063 19.3811C45.2063 28.8613 37.4879 36.5742 28.0006 36.5742C18.5133 36.5742 10.7949 28.8614 10.7949 19.3811ZM26.5538 53.813V38.7082C27.0315 38.7435 27.514 38.7617 28.0006 38.7617C28.4872 38.7617 28.9697 38.7435 29.4474 38.7082V53.813H26.5538Z" fill="black"/>
<path d="M42.5813 19.3811C42.5813 11.3483 36.0404 4.81299 28.0006 4.81299C19.9608 4.81299 13.4199 11.3483 13.4199 19.3811C13.4199 27.4139 19.9608 33.9492 28.0006 33.9492C36.0404 33.9492 42.5813 27.414 42.5813 19.3811ZM15.6074 19.3811C15.6074 12.5543 21.167 7.00049 28.0006 7.00049C34.8342 7.00049 40.3938 12.5543 40.3938 19.3811C40.3938 26.2077 34.8342 31.7616 28.0006 31.7616C21.167 31.7616 15.6074 26.2077 15.6074 19.3811Z" fill="black"/>
<path d="M29.2435 21.627C31.8226 21.627 33.921 19.5596 33.921 17.0183C33.921 14.4772 31.8226 12.4097 29.2435 12.4097H25.7754C25.7046 12.41 25.2971 12.4184 24.9817 12.7511C24.692 13.0566 24.682 13.4228 24.6816 13.5033V25.9587C24.6816 26.5627 25.1713 27.0525 25.7754 27.0525C26.3795 27.0525 26.8691 26.5627 26.8691 25.9587V21.6362C27.6631 21.6319 28.7012 21.627 29.2435 21.627ZM29.2435 14.5972C30.5931 14.5972 31.7335 15.7059 31.7335 17.0183C31.7335 18.3307 30.5933 19.4395 29.2435 19.4395C28.7037 19.4395 27.6799 19.4444 26.8871 19.4487C26.8827 18.6334 26.8778 17.5693 26.8778 17.0183C26.8778 16.5524 26.8749 15.4459 26.8724 14.5972H29.2435Z" fill="black"/>
</g>
<defs>
<clipPath id="clip0_0_9521">
<rect width="56" height="56" fill="white" transform="translate(0 0.000488281)"/>
</clipPath>
</defs>
</svg>
