<svg width="56" height="57" viewBox="0 0 56 57" fill="none" xmlns="http://www.w3.org/2000/svg">
<g clip-path="url(#clip0_0_10392)">
<path d="M55.0666 0.600586H48.5333H42.28H31.7333H14.1866H7.9333H0.933283C0.373291 0.600586 0 0.973877 0 1.53387V8.53388V19.0805V29.6272V40.2672V50.8138V55.6672C0 56.2272 0.373291 56.6005 0.933283 56.6005H6.62661H15.4933H26.1333H30.3332H40.9732H49.8399H55.0665C55.6265 56.6005 55.9998 56.2272 55.9998 55.6672V50.3471V39.8007C55.9998 39.8006 55.9998 39.8006 55.9998 39.8005V29.2538V29.2537V18.7073C55.9998 18.6937 55.9986 18.6813 55.9981 18.6683C55.999 18.6502 55.9998 18.6321 55.9998 18.614V8.0673V1.53387C56 0.973877 55.6266 0.600586 55.0666 0.600586ZM47.7866 41.7606L46.3112 40.2852C46.2646 40.1786 46.1968 40.0774 46.1066 39.9873L41.4866 35.3672L45.4065 31.4473L54.1332 40.174V48.1073L47.7866 41.7606ZM26.5067 54.7339L24.3133 52.5405L40.1333 36.7205L44.059 40.6463L39.6777 45.1058C39.5736 45.1523 39.4748 45.2189 39.3866 45.3071L29.96 54.7339H26.5067ZM8.3067 2.56056H13.8133L26.88 15.6272L23.1532 19.354L22.9761 19.531L11.7599 8.25389C11.6698 8.1637 11.5687 8.09587 11.462 8.04928L7.09331 3.68054L8.3067 2.56056ZM48.16 2.46726L54.1333 8.53388V16.3739L41.44 3.68054L42.6533 2.46726H48.16ZM54.1333 37.5605L54.1325 37.5597L46.2444 29.6135C46.206 29.5528 46.1608 29.4946 46.1067 29.4405L41.4868 24.8205L45.4067 20.9005L54.1334 29.6272V37.5605H54.1333ZM7.11866 14.2526L11.0567 10.3506L26.88 26.1739L22.96 30.0938L11.7599 18.8938L7.11866 14.2526ZM11.0567 20.8973L26.88 36.7205L22.96 40.6405L11.7599 29.4405L7.11866 24.7992L11.0567 20.8973ZM24.2724 41.9529L28.9332 37.3738L40.1333 26.1739L44.0066 30.0472L28.1866 45.8672L24.2724 41.9529ZM28.1866 35.3205L24.3133 31.4472L28.9333 26.8271L40.1333 15.6272L44.0066 19.5005L28.1866 35.3205ZM28.1886 24.7719L24.2793 20.8413L40.0866 5.03393L44.0065 8.95388L28.1886 24.7719ZM1.86668 30.0939L5.78662 26.174L9.70657 30.0939L1.86657 37.9339V30.0939H1.86668ZM7.09331 35.4138L11.0133 31.4939L26.8333 47.3139L22.9599 51.1872L11.7599 39.9872C11.6698 39.897 11.5687 39.8292 11.462 39.7826L7.09331 35.4138ZM1.86668 8.90728L5.78662 4.98734L9.75327 8.95399L5.13334 13.5739C5.13334 13.5739 5.13334 13.5739 5.13322 13.574L1.86657 16.8407V8.90728H1.86668ZM1.86668 19.4565L5.80575 15.5536L9.70657 19.5474L5.13322 24.1207L1.86657 27.3874V19.4565H1.86668ZM1.86668 40.6406L5.78662 36.8139L9.70657 40.7339L5.13322 45.3072L1.86657 48.5739V40.6406H1.86668ZM46.2443 19.0669C46.2059 19.0062 46.1607 18.9479 46.1066 18.8938L41.4866 14.2738L45.4065 10.3539L54.1332 19.0805V27.0138L46.2443 19.0669ZM54.1333 2.46726V5.82722L50.7734 2.46726H54.1333ZM28.1866 14.2272L24.2666 10.3073L32.1066 2.46726H40.0399L28.1866 14.2272ZM29.3999 2.46726L22.9133 8.95388L16.4267 2.46726H29.3999ZM1.86668 2.46726H5.69333L5.13334 3.02726L1.86668 6.29391V2.46726ZM1.86668 51.1898L5.80608 47.2865L9.75338 51.2338L6.25332 54.7339H1.86668V51.1898ZM8.95999 54.7339L11.1067 52.5872L13.2533 54.7339H8.95999ZM15.96 54.7339L7.21229 45.8931L11.12 42.0213L22.3066 53.1472L23.8933 54.7339H15.96ZM40.1333 47.2672L44.0999 51.2338L40.6 54.7338H32.6667L40.1333 47.2672ZM43.2133 54.7339L45.4066 52.5405L47.6 54.7339H43.2133ZM54.1333 54.7339H50.3067L46.1067 50.534C46.0165 50.4438 45.9155 50.3759 45.8088 50.3294L41.4401 45.9606L45.4067 41.994L54.1334 50.7207V54.7339H54.1333Z" fill="white"/>
</g>
<defs>
<clipPath id="clip0_0_10392">
<rect width="56" height="56" fill="white" transform="translate(0 0.600586)"/>
</clipPath>
</defs>
</svg>
