<svg width="57" height="57" viewBox="0 0 57 57" fill="none" xmlns="http://www.w3.org/2000/svg">
<g clip-path="url(#clip0_0_10428)">
<path d="M37.9329 4.33245V0.599121H32.3329V2.46579H28.5996V4.33245H16.4663C9.76844 4.34015 4.34064 9.76795 4.33294 16.4658V28.5991H2.46628V32.3325H0.599609V37.9325H4.33294V56.5991H21.1329V37.9325H24.8663V32.3325H22.9996V28.5991H21.1329V22.0658C21.1329 21.5504 21.5508 21.1325 22.0663 21.1325H28.5996V22.9991H32.3329V24.8658H37.9329V21.1325H56.5996V4.33245H37.9329ZM4.33294 30.4658H21.1329V32.3325H4.33294V30.4658ZM19.2663 54.7325H6.19961V37.9325H19.2663V54.7325ZM22.9996 34.1991V36.0658H2.46628V34.1991H22.9996ZM28.5996 19.2658H22.0663C20.5199 19.2658 19.2663 20.5194 19.2663 22.0658V28.5991H6.19961V16.4658C6.20626 10.7985 10.799 6.20577 16.4663 6.19912H28.5996V19.2658ZM32.3329 21.1325H30.4663V4.33245H32.3329V21.1325ZM36.0663 22.9991H34.1996V2.46579H36.0663V22.9991ZM54.7329 19.2658H37.9329V6.19912H54.7329V19.2658Z" fill="black"/>
</g>
<defs>
<clipPath id="clip0_0_10428">
<rect width="56" height="56" fill="white" transform="translate(0.599609 0.599121)"/>
</clipPath>
</defs>
</svg>
