<svg width="56" height="57" viewBox="0 0 56 57" fill="none" xmlns="http://www.w3.org/2000/svg">
<g clip-path="url(#clip0_0_10421)">
<path d="M31.0634 30.8257H34.5634V36.0757C34.5634 36.9809 35.7753 37.2854 36.2066 36.4947L41.4566 26.8697C41.774 26.2878 41.3525 25.5757 40.6884 25.5757H37.1884V20.3257C37.1884 19.422 35.9777 19.1139 35.5453 19.9067L30.2953 29.5317C29.9779 30.1136 30.3994 30.8257 31.0634 30.8257ZM35.4384 23.7571V26.4507C35.4384 26.9339 35.8302 27.3257 36.3134 27.3257H39.2144L36.3134 32.6443V29.9507C36.3134 29.4675 35.9217 29.0757 35.4384 29.0757H32.5375L35.4384 23.7571Z" fill="black"/>
<path d="M49.875 14.6379C49.875 13.0978 48.7321 11.8202 47.25 11.6072V3.26294C47.25 1.5743 45.8761 0.200439 44.1875 0.200439C42.4989 0.200439 41.125 1.5743 41.125 3.26294V11.5754H30.625V3.26294C30.625 1.5743 29.2511 0.200439 27.5625 0.200439C25.8739 0.200439 24.5 1.5743 24.5 3.26294V11.6072C23.0179 11.8201 21.875 13.0978 21.875 14.6379C21.875 15.8571 22.5913 16.912 23.625 17.4044V28.2004C23.625 33.0774 26.49 37.2973 30.625 39.2669V42.2004C30.625 43.8284 31.7422 45.2002 33.25 45.5896V48.5442C33.25 49.871 32.1706 50.9504 30.8438 50.9504H15.5312C14.2044 50.9504 13.125 49.871 13.125 48.5442V40.448C14.1869 39.649 14.875 38.3787 14.875 36.9504C14.875 34.5381 12.9124 32.5754 10.5 32.5754C8.08763 32.5754 6.125 34.5381 6.125 36.9504C6.125 38.3787 6.81308 39.649 7.875 40.448V48.7629C7.875 52.864 11.2115 56.2004 15.3125 56.2004H31.0625C35.1635 56.2004 38.5 52.864 38.5 48.7629V45.5896C40.0078 45.2002 41.125 43.8283 41.125 42.2004V39.2669C45.26 37.2973 48.125 33.0774 48.125 28.2004V17.4044C49.1587 16.912 49.875 15.8571 49.875 14.6379ZM42.875 3.26294C42.875 2.53921 43.4638 1.95044 44.1875 1.95044C44.9112 1.95044 45.5 2.53921 45.5 3.26294V11.5754H42.875V3.26294ZM26.25 3.26294C26.25 2.53921 26.8388 1.95044 27.5625 1.95044C28.2862 1.95044 28.875 2.53921 28.875 3.26294V11.5754H26.25V3.26294ZM10.5 34.3254C11.9474 34.3254 13.125 35.5031 13.125 36.9504C13.125 38.3978 11.9474 39.5754 10.5 39.5754C9.05264 39.5754 7.875 38.3978 7.875 36.9504C7.875 35.5031 9.05264 34.3254 10.5 34.3254ZM31.0625 54.4504H15.3125C12.1764 54.4504 9.625 51.899 9.625 48.7629V41.2374C10.1836 41.3513 10.782 41.3583 11.375 41.2374V48.5442C11.375 50.8359 13.2395 52.7004 15.5312 52.7004H30.8438C33.1355 52.7004 35 50.8359 35 48.5442V45.7004H36.75V48.7629C36.75 51.899 34.1986 54.4504 31.0625 54.4504ZM39.375 42.2004C39.375 43.1653 38.5899 43.9504 37.625 43.9504H34.125C33.1601 43.9504 32.375 43.1653 32.375 42.2004V39.9401C34.5988 40.6043 37.0424 40.6368 39.375 39.9401V42.2004ZM46.375 28.2004C46.375 33.9902 41.6648 38.7004 35.875 38.7004C30.0852 38.7004 25.375 33.9902 25.375 28.2004V17.7004H46.375V28.2004ZM46.8125 15.9504H24.9375C24.2138 15.9504 23.625 15.3617 23.625 14.6379C23.625 13.9142 24.2138 13.3254 24.9375 13.3254H46.8125C47.5362 13.3254 48.125 13.9142 48.125 14.6379C48.125 15.3617 47.5362 15.9504 46.8125 15.9504Z" fill="black"/>
</g>
<defs>
<clipPath id="clip0_0_10421">
<rect width="56" height="56" fill="white" transform="translate(0 0.200439)"/>
</clipPath>
</defs>
</svg>
