<svg width="56" height="57" viewBox="0 0 56 57" fill="none" xmlns="http://www.w3.org/2000/svg">
<path d="M49 21.6001H45.5V12.8501H47.25V7.6001H24.5V12.8501H26.25V21.6001H22.75V5.8501H10.5V21.6001H7V2.3501H1.75V54.8501H7V51.3501H49V54.8501H54.25V2.3501H49V21.6001ZM5.25 53.1001H3.5V4.1001H5.25V53.1001ZM38.5 9.3501H45.5V11.1001H38.5V9.3501ZM35 9.3501H36.75V11.1001H35V9.3501ZM35 12.8501H36.75V18.1001H35V12.8501ZM38.5 19.8501V12.8501H43.75V21.6001H28V12.8501H33.25V19.8501H38.5ZM26.25 9.3501H33.25V11.1001H26.25V9.3501ZM17.5 7.6001H21V11.1001H17.5V7.6001ZM17.5 12.8501H21V21.6001H17.5V12.8501ZM12.25 7.6001H15.75V11.1001H12.25V7.6001ZM12.25 12.8501H15.75V21.6001H12.25V12.8501ZM49 49.6001H7V47.8501H49V49.6001ZM17.8281 42.4085C17.9833 42.5327 18.1762 42.6004 18.375 42.6004C18.5738 42.6004 18.7667 42.5327 18.9219 42.4085L26.25 36.546V46.1001H10.5V36.546L17.8281 42.4085ZM12.1196 35.6001H24.6321L18.375 40.6051L12.1196 35.6001ZM45.5 33.8501V40.8501H36.75V33.8501H45.5ZM36.75 32.1001V30.3501H45.5V32.1001H36.75ZM45.5 42.6001V46.1001H31.5V42.6001H45.5ZM49 46.1001H47.25V28.6001H35V40.8501H29.75V46.1001H28V33.8501H8.75V46.1001H7V26.8501H49V46.1001ZM49 25.1001H7V23.3501H49V25.1001ZM50.75 4.1001H52.5V53.1001H50.75V4.1001Z" fill="black"/>
</svg>
