<svg width="56" height="56" viewBox="0 0 56 56" fill="none" xmlns="http://www.w3.org/2000/svg">
<g clip-path="url(#clip0_0_9526)">
<path d="M34.2608 13.5333L26.7941 6.46334L26.7867 6.45774L21.322 1.27867C20.4559 0.456185 19.3067 -0.00164964 18.1123 4.46652e-06H0.933333C0.417868 4.46652e-06 0 0.417872 0 0.933338C0 1.4488 0.417868 1.86667 0.933333 1.86667H1.86667V9.33334H0.933333C0.417868 9.33334 0 9.75121 0 10.2667C0 10.7821 0.417868 11.2 0.933333 11.2H1.86667V16.8C0.835735 16.8 0 17.6357 0 18.6667V54.1333C0 55.1643 0.835735 56 1.86667 56H54.1333C55.1643 56 56 55.1643 56 54.1333V48.5333C56 47.5024 55.1643 46.6667 54.1333 46.6667H49.4667V30.5135L53.2588 34.1068C53.8161 34.6363 54.1321 35.3709 54.1333 36.1396V39.2C54.1333 39.7155 54.5512 40.1333 55.0667 40.1333C55.5821 40.1333 56 39.7155 56 39.2V36.1396C55.998 34.8584 55.4711 33.6339 54.5421 32.7516L34.2608 13.5333ZM40.1333 39.2H35.4667V33.6C35.4647 32.9361 35.109 32.3236 34.5333 31.9928V25.7012L40.1333 31.0063V39.2ZM28 31.7333V26.1333C27.998 25.4694 27.6423 24.8569 27.0667 24.5261V18.6275L32.6667 23.9325V31.7333H28ZM20.5333 24.2667V18.6667C20.5333 17.6357 19.6976 16.8 18.6667 16.8V11.2569C19.183 11.3609 19.6595 11.6084 20.0415 11.9709L25.2 16.8588V24.2667H20.5333ZM11.2 16.8V11.2H16.8V16.8H11.2ZM16.8 9.33334H11.2V1.86667H16.8V9.33334ZM27.0667 16.0533V9.29227L32.6667 14.5983V21.3612L27.0667 16.0533ZM34.5333 23.1271V16.366L40.1333 21.672V28.4349L34.5333 23.1271ZM25.2 7.52454V14.2875L21.3248 10.6157C20.5947 9.92955 19.6623 9.49801 18.6667 9.3856V1.9236C19.1817 2.02648 19.6573 2.27268 20.0387 2.63387L25.2 7.52454ZM3.73333 1.86667H9.33333V9.33334H3.73333V1.86667ZM3.73333 11.2H9.33333V16.8H3.73333V11.2ZM54.1333 54.1333H1.86667V18.6667H18.6667V24.2667C18.6667 25.2976 19.5024 26.1333 20.5333 26.1333H26.1333V31.7333C26.1333 32.7643 26.9691 33.6 28 33.6H33.6V39.2C33.6 40.2309 34.4357 41.0667 35.4667 41.0667H41.0667V46.6667C41.0667 47.6976 41.9024 48.5333 42.9333 48.5333H54.1333V54.1333ZM42.9333 46.6667V41.0667C42.9313 40.4028 42.5756 39.7903 42 39.4595V32.7749L47.6 38.08V46.6667H42.9333ZM47.6 35.5077L42 30.2027V23.4397L47.6 28.7467V35.5077Z" fill="black"/>
</g>
<defs>
<clipPath id="clip0_0_9526">
<rect width="56" height="56" fill="white"/>
</clipPath>
</defs>
</svg>
