<svg width="56" height="56" viewBox="0 0 56 56" fill="none" xmlns="http://www.w3.org/2000/svg">
<g clip-path="url(#clip0_0_9467)">
<path d="M40.1326 26.1331H39.1992V24.2664H40.1326C41.679 24.2664 42.9326 23.0128 42.9326 21.4664V5.42803C44.3877 4.91551 45.1519 3.32033 44.6393 1.86514C44.2449 0.745611 43.1862 -0.00245571 41.9992 -0.00023904H13.9992C12.4564 -0.00315571 11.2034 1.24518 11.2005 2.78798C11.1982 3.97494 11.9464 5.03369 13.0659 5.42803V21.4664C13.0659 23.0128 14.3195 24.2664 15.8659 24.2664H16.7992V26.1331H15.8659C13.2899 26.1361 11.2023 28.2238 11.1992 30.7998C11.1992 31.3152 11.6171 31.7331 12.1326 31.7331C12.1142 37.97 15.7726 43.6319 21.4659 46.1783V55.0664C21.4659 55.5819 21.8838 55.9998 22.3992 55.9998H33.5992C34.1147 55.9998 34.5326 55.5819 34.5326 55.0664V46.1783C40.2251 43.631 43.883 37.9696 43.8659 31.7331C44.3813 31.7331 44.7992 31.3152 44.7992 30.7998C44.7962 28.2238 42.7085 26.1361 40.1326 26.1331ZM13.0659 2.79976C13.0659 2.28433 13.4838 1.86643 13.9992 1.86643H41.9992C42.5147 1.86643 42.9326 2.28433 42.9326 2.79976C42.9326 3.31519 42.5147 3.73309 41.9992 3.73309H13.9992C13.4838 3.73309 13.0659 3.31519 13.0659 2.79976ZM15.8659 22.3998C15.3505 22.3998 14.9326 21.9819 14.9326 21.4664V5.59976H41.0659V21.4664C41.0659 21.9819 40.648 22.3998 40.1326 22.3998H15.8659ZM37.3326 24.2664V26.1331H18.6659V24.2664H37.3326ZM23.3326 54.1331V46.9016L23.4194 46.925C23.5127 46.953 23.606 46.9744 23.6994 47.0006C24.041 47.0976 24.3859 47.1829 24.7344 47.2563C24.9015 47.2918 25.0695 47.3207 25.2375 47.3496C25.5259 47.4 25.8162 47.443 26.1083 47.4756C26.2856 47.4971 26.4611 47.5195 26.6403 47.5344C27.0205 47.5662 27.4015 47.5842 27.7836 47.5886C27.8545 47.5886 27.9236 47.5988 27.9946 47.5988C28.0655 47.5988 28.1355 47.5895 28.2064 47.5886C28.5885 47.5842 28.9693 47.5662 29.3488 47.5344C29.528 47.5195 29.7054 47.4962 29.8836 47.4756C30.173 47.4411 30.4604 47.4 30.747 47.3506C30.9178 47.3207 31.0886 47.2899 31.2584 47.2572C31.5982 47.1872 31.9332 47.1023 32.2655 47.009C32.3691 46.98 32.4745 46.9567 32.5781 46.9259C32.6052 46.9175 32.6341 46.9119 32.6612 46.9035L32.6659 54.1331H23.3326ZM33.2446 44.7111C30.7324 45.7241 27.9809 45.9893 25.3215 45.4746C24.4404 45.305 23.5785 45.0484 22.7483 44.7083C17.4485 42.5848 13.981 37.4424 13.9992 31.7331H41.9992C42.017 37.4446 38.5471 42.5885 33.2446 44.7111ZM13.2255 29.8664C13.6225 28.7485 14.6796 28.0012 15.8659 27.9998H40.1326C41.3188 28.0012 42.3759 28.7485 42.7729 29.8664H13.2255Z" fill="black"/>
<path d="M24.2659 8.39965H21.2941C20.7787 6.94167 19.1789 6.17762 17.721 6.69317C16.2631 7.20872 15.4989 8.80833 16.0144 10.2663C16.5298 11.7243 18.1297 12.4884 19.5875 11.9728C20.385 11.6909 21.0122 11.0636 21.294 10.2663H24.2659C24.7813 10.2663 25.1992 9.84842 25.1992 9.33298C25.1992 8.81755 24.7813 8.39965 24.2659 8.39965ZM18.6659 10.2663C18.1504 10.2663 17.7325 9.84842 17.7325 9.33298C17.7325 8.81755 18.1504 8.39965 18.6659 8.39965C19.1813 8.39965 19.5992 8.81755 19.5992 9.33298C19.5992 9.84842 19.1813 10.2663 18.6659 10.2663Z" fill="black"/>
</g>
<defs>
<clipPath id="clip0_0_9467">
<rect width="56" height="56" fill="white" transform="translate(0 -0.000244141)"/>
</clipPath>
</defs>
</svg>
