<svg width="56" height="57" viewBox="0 0 56 57" fill="none" xmlns="http://www.w3.org/2000/svg">
<g clip-path="url(#clip0_0_10414)">
<path d="M53.423 50.5486H49.9652V1.04259C49.9652 0.536568 49.6279 0.199219 49.1218 0.199219H6.95317C6.44715 0.199219 6.1098 0.536568 6.1098 1.04259V50.5486H2.65197C2.14594 50.5486 1.80859 50.886 1.80859 51.392V55.3558C1.80859 55.8619 2.14594 56.1992 2.65197 56.1992H53.3387C53.8447 56.1992 54.1821 55.8619 54.1821 55.3558V51.392C54.2664 50.9703 53.8447 50.5486 53.423 50.5486ZM7.79654 1.88597H48.2785V50.5486H46.0857V4.83777C46.0857 4.33175 45.7483 3.9944 45.2423 3.9944H10.8327C10.3267 3.9944 9.98932 4.33175 9.98932 4.83777V50.5486H7.79654V1.88597ZM28.8809 35.0305V21.1992H44.399V35.0305H28.8809ZM44.399 36.7173V50.5486H28.8809V36.7173H44.399ZM28.8809 19.5125V5.68115H44.399V19.5125H28.8809ZM11.6761 35.0305V21.1992H27.1941V35.0305H11.6761ZM27.1941 36.7173V50.5486H11.6761V36.7173H27.1941ZM11.6761 19.5125V5.68115H27.1941V19.5125H11.6761ZM3.49534 54.5125V52.2354H10.8327H45.2423H52.5797V54.5125H3.49534Z" fill="black"/>
</g>
<defs>
<clipPath id="clip0_0_10414">
<rect width="56" height="56" fill="white" transform="translate(0 0.199219)"/>
</clipPath>
</defs>
</svg>
